<svg version="1.1" id="Layer_1" xmlns="http://www.w3.org/2000/svg" xmlns:xlink="http://www.w3.org/1999/xlink" x="0px" y="0px"
	 width="100%" viewBox="0 0 1597 1597" enable-background="new 0 0 1597 1597" xml:space="preserve">
<path fill="#000000" opacity="1.000000" stroke="none" 
	d="
M741.000000,1598.000000 
	C494.000031,1598.000000 247.500092,1598.000000 1.000099,1598.000000 
	C1.000066,1065.666748 1.000066,533.333618 1.000033,1.000314 
	C533.333069,1.000209 1065.666138,1.000209 1597.999512,1.000105 
	C1597.999634,533.333008 1597.999634,1065.666016 1597.999756,1597.999512 
	C1312.500000,1598.000000 1027.000000,1598.000000 741.000000,1598.000000 
M231.891876,248.632538 
	C219.302322,243.872711 206.756287,238.990997 194.082565,234.466965 
	C191.838852,233.666031 188.839447,233.694275 186.568222,234.461761 
	C168.144180,240.687668 149.788162,247.118408 131.470764,253.653061 
	C128.302689,254.783264 126.156166,254.469131 123.532852,252.142395 
	C106.584221,237.109833 89.452156,222.284042 72.368736,207.403656 
	C71.231461,206.413040 69.999580,205.531021 68.287369,204.186874 
	C68.157944,206.011932 68.090942,206.822571 68.044235,207.634384 
	C64.679344,266.123718 61.287552,324.611542 58.077343,383.109344 
	C57.970871,385.049561 59.227791,387.559937 60.654446,389.014954 
	C83.751984,412.571350 106.934013,436.045746 130.241302,459.394562 
	C132.924652,462.082672 133.622223,464.424133 132.729111,468.141327 
	C109.893227,563.185486 87.172897,658.257507 64.504692,753.341858 
	C63.784435,756.362976 63.331177,759.609131 63.597660,762.677002 
	C64.966431,778.435181 66.463211,794.186768 68.297195,809.895996 
	C68.627625,812.726379 70.111427,815.995117 72.131027,817.967773 
	C95.248055,840.547302 118.538300,862.950378 141.915146,885.261414 
	C143.520569,886.793579 146.172043,887.995972 148.361313,888.036255 
	C187.161301,888.751221 225.965134,889.255615 264.767914,889.820007 
	C278.424988,890.018677 292.084015,890.524719 305.737610,890.399048 
	C318.671021,890.280090 331.917023,891.143066 344.459625,888.685730 
	C367.667755,884.138733 386.928528,872.395264 398.889832,850.953918 
	C405.538940,839.034851 407.596741,825.914307 408.624329,812.530334 
	C410.464264,788.566101 407.725464,765.395203 397.795166,743.222839 
	C380.967316,705.649475 366.852478,667.043335 354.351471,627.826538 
	C349.175476,611.588867 349.383362,595.872498 356.446503,580.128174 
	C359.935883,572.350037 364.570770,568.471680 373.601318,568.975342 
	C386.674500,569.704468 396.495880,558.570190 395.852295,545.009766 
	C395.264679,532.628723 384.236298,523.845947 371.088928,525.788208 
	C365.872742,526.558838 360.835938,528.511719 355.698547,529.853943 
	C345.212952,532.593506 337.885956,539.136353 332.790527,548.517334 
	C323.969025,564.758301 318.851868,582.036499 318.901886,600.564087 
	C318.990692,633.463989 328.452240,664.274597 340.874512,694.285889 
	C351.416595,719.754761 360.387909,745.699097 364.605103,772.993652 
	C369.044830,801.728699 355.387726,828.319641 331.047028,839.434387 
	C322.182037,843.482483 312.850739,846.104553 302.960388,844.454041 
	C297.524628,843.546875 297.205505,841.707642 299.426239,836.905457 
	C303.101807,828.957214 307.417114,820.997559 309.222412,812.563171 
	C311.995331,799.607849 313.442963,786.285828 314.357635,773.043762 
	C315.015808,763.514709 315.539703,753.458130 313.303436,744.327515 
	C290.604736,651.648865 267.361084,559.103455 244.091278,466.565674 
	C243.070404,462.505859 244.079041,460.231293 246.826218,457.534424 
	C269.656403,435.122681 292.312744,412.533813 315.162476,390.142242 
	C317.812683,387.545197 318.688385,384.978577 318.531586,381.383057 
	C316.704651,339.483704 315.006317,297.578705 313.280731,255.674927 
	C312.584595,238.770279 311.905029,221.864944 311.182526,204.088989 
	C309.286743,205.633621 308.016357,206.586548 306.837372,207.641647 
	C289.833405,222.858444 272.785339,238.026993 255.906204,253.381210 
	C253.295761,255.755829 251.164246,256.167908 247.991257,254.773376 
	C242.977341,252.569717 237.758789,250.831696 231.891876,248.632538 
M539.523193,621.565613 
	C539.523193,709.966553 539.523193,798.367493 539.523193,886.674194 
	C560.030945,886.674194 579.791443,886.674194 599.780090,886.674194 
	C597.585632,835.487915 595.404846,784.621094 593.224060,733.754211 
	C593.995239,733.621826 594.766479,733.489380 595.537659,733.356934 
	C609.250122,784.535156 622.962585,835.713318 636.637207,886.750549 
	C654.735168,886.750549 672.346252,886.750549 690.038940,886.750549 
	C690.038940,795.121277 690.038940,703.727600 690.038940,612.307129 
	C669.892761,612.307129 649.989380,612.307129 629.845276,612.307129 
	C632.119507,660.290344 634.377869,707.939087 636.632141,755.501465 
	C632.587036,757.123962 632.425049,754.481689 631.842834,752.235046 
	C623.280151,719.191284 614.703125,686.151184 606.121826,653.112244 
	C602.574524,639.454468 599.008911,625.801331 595.496460,612.318420 
	C576.614502,612.318420 558.219177,612.318420 539.523193,612.318420 
	C539.523193,615.297241 539.523193,617.943481 539.523193,621.565613 
M995.276245,874.224915 
	C993.255493,827.370605 991.234741,780.516235 989.213989,733.661926 
	C989.988647,733.548706 990.763245,733.435486 991.537903,733.322327 
	C1005.230591,784.449768 1018.923218,835.577271 1032.607178,886.672485 
	C1050.673462,886.672485 1068.415161,886.672485 1086.134033,886.672485 
	C1086.134033,795.063416 1086.134033,703.768005 1086.134033,612.414795 
	C1065.979248,612.414795 1045.973511,612.414795 1025.850830,612.414795 
	C1028.127686,660.497925 1030.383911,708.144287 1032.640015,755.790710 
	C1031.995239,756.063171 1031.350342,756.335632 1030.705444,756.608093 
	C1029.730591,755.062866 1028.293457,753.639404 1027.849731,751.954285 
	C1020.852966,725.385742 1013.990295,698.781860 1007.083740,672.189514 
	C1001.900269,652.231506 996.698120,632.278381 991.477844,612.221252 
	C972.772888,612.221252 954.357483,612.221252 935.802063,612.221252 
	C935.802063,703.879883 935.802063,795.299438 935.802063,886.558960 
	C955.969238,886.558960 975.854858,886.558960 995.789917,886.558960 
	C995.606995,882.475647 995.443298,878.820984 995.276245,874.224915 
M1356.415894,648.026855 
	C1354.260010,635.433960 1352.104126,622.841064 1349.966553,610.354614 
	C1327.545776,610.354614 1305.484619,610.354614 1283.433105,610.354614 
	C1266.361816,702.658997 1249.357544,794.600830 1232.313354,886.758301 
	C1252.726074,886.758301 1272.815308,886.758301 1293.094604,886.758301 
	C1295.169556,870.107727 1297.219727,853.656860 1299.257812,837.302490 
	C1310.708374,837.302490 1321.613647,837.302490 1332.733276,837.302490 
	C1333.765381,853.967590 1334.779053,870.336304 1335.797363,886.777527 
	C1356.586060,886.777527 1376.864380,886.777527 1397.471680,886.777527 
	C1383.822754,807.303406 1370.218384,728.087952 1356.415894,648.026855 
M782.589417,733.416626 
	C782.589417,705.113098 782.589417,676.809570 782.589417,648.047485 
	C796.915710,648.047485 811.007019,648.047485 825.309937,648.047485 
	C825.309937,635.834717 825.309937,624.081726 825.309937,612.366821 
	C790.527588,612.366821 755.995422,612.366821 721.490479,612.366821 
	C721.490479,704.009155 721.490479,795.263245 721.490479,886.645447 
	C741.899902,886.645447 762.086304,886.645447 782.574158,886.645447 
	C782.574158,848.028870 782.574158,809.754883 782.574158,771.014526 
	C796.953491,771.014526 811.039490,771.014526 825.296875,771.014526 
	C825.296875,758.792419 825.296875,747.039307 825.296875,734.978760 
	C817.894165,734.978760 810.748291,735.054810 803.604858,734.957092 
	C796.651062,734.862000 789.699707,734.588867 782.589417,733.416626 
M471.500031,611.981079 
	C464.083832,611.981079 456.667664,611.981079 449.433960,611.981079 
	C449.433960,704.070801 449.433960,795.408569 449.433960,886.623169 
	C469.845551,886.623169 489.908356,886.623169 509.757507,886.623169 
	C509.757507,794.918762 509.757507,703.578552 509.757507,611.981079 
	C497.112915,611.981079 484.806458,611.981079 471.500031,611.981079 
M844.087158,771.500000 
	C844.087158,809.898621 844.087158,848.297241 844.087158,886.647034 
	C864.791687,886.647034 884.852417,886.647034 904.785645,886.647034 
	C904.785645,794.966736 904.785645,703.626831 904.785645,612.330078 
	C884.421936,612.330078 864.372009,612.330078 844.087158,612.330078 
	C844.087158,665.285828 844.087158,717.892883 844.087158,771.500000 
M1478.097290,864.500000 
	C1478.097290,780.459473 1478.097290,696.418884 1478.097290,612.279602 
	C1457.527100,612.279602 1437.474731,612.279602 1417.358398,612.279602 
	C1417.358398,703.916199 1417.358398,795.253967 1417.358398,886.692566 
	C1437.688232,886.692566 1457.745483,886.692566 1478.097290,886.692566 
	C1478.097290,879.433960 1478.097290,872.466919 1478.097290,864.500000 
M1308.500122,946.809326 
	C1262.602295,946.809326 1216.704590,946.809326 1170.845459,946.809326 
	C1170.845459,951.348450 1170.845459,955.095398 1170.845459,958.978577 
	C1277.785034,958.978577 1384.403442,958.978577 1491.242676,958.978577 
	C1491.242676,954.903137 1491.242676,951.005249 1491.242676,946.809326 
	C1430.457886,946.809326 1369.979126,946.809326 1308.500122,946.809326 
M1110.272949,794.180542 
	C1109.946899,798.430542 1113.190063,796.928162 1115.089844,796.932495 
	C1148.706787,797.008972 1182.323730,796.990662 1215.940796,796.978149 
	C1217.371826,796.977661 1218.802734,796.835266 1220.241333,796.758545 
	C1220.241333,786.328125 1220.241333,776.264404 1220.241333,766.196045 
	C1183.532227,766.196045 1147.137085,766.196045 1110.271851,766.196045 
	C1110.271851,775.346252 1110.271851,784.288574 1110.272949,794.180542 
M481.500092,952.810059 
	C452.414459,952.810059 423.328796,952.810059 394.072754,952.810059 
	C394.072754,957.134583 394.072754,960.873535 394.072754,964.793030 
	C481.584839,964.793030 568.873596,964.793030 656.009766,964.793030 
	C656.009766,960.664429 656.009766,956.898682 656.009766,952.810059 
	C597.994751,952.810059 540.247437,952.810059 481.500092,952.810059 
M803.571411,955.748291 
	C801.822510,961.701294 800.073547,967.654297 798.324646,973.607300 
	C794.437561,964.340210 791.537231,955.201294 789.146973,945.930847 
	C787.954956,941.307495 785.643616,940.496460 781.535156,942.066895 
	C781.535156,957.664795 781.535156,973.111145 781.535156,988.838379 
	C783.123657,988.838379 784.534729,988.838379 786.618774,988.838379 
	C786.618774,978.395447 786.618774,968.138550 786.618774,957.881653 
	C788.196228,959.278564 788.736145,960.767700 789.194946,962.281372 
	C791.127014,968.655396 792.951904,975.063965 795.028259,981.390198 
	C795.402344,982.529968 796.775330,983.341919 797.687134,984.305176 
	C798.579773,983.321045 799.912048,982.481628 800.291626,981.328552 
	C802.320740,975.164001 804.114868,968.921997 805.984009,962.704834 
	C806.658386,960.461853 807.315979,958.213745 807.981140,955.968018 
	C808.369324,956.065186 808.757568,956.162415 809.145752,956.259644 
	C809.145752,967.053772 809.145752,977.847961 809.145752,988.873169 
	C810.859802,988.873169 812.274353,988.873169 813.749451,988.873169 
	C813.749451,973.040894 813.749451,957.461914 813.749451,941.964783 
	C809.598022,940.492554 807.166565,941.440430 806.337524,945.832336 
	C805.752869,948.929504 804.680664,951.934692 803.571411,955.748291 
M985.269165,965.500488 
	C985.269165,957.694946 985.269165,949.889404 985.269165,941.824890 
	C983.411804,941.824890 981.895691,941.824890 980.021423,941.824890 
	C980.021423,953.503174 980.021423,964.802063 980.021423,976.100952 
	C978.622009,975.030029 977.953064,973.777039 977.349304,972.493286 
	C973.026306,963.302307 968.582336,954.164429 964.470093,944.879822 
	C962.871338,941.270020 960.793518,940.661499 957.612915,942.134094 
	C957.612915,957.825684 957.612915,973.274841 957.612915,988.877563 
	C959.286987,988.877563 960.721558,988.877563 962.710327,988.877563 
	C962.710327,977.375732 962.710327,966.099243 962.710327,954.822754 
	C968.437317,964.834595 973.359314,974.944092 977.923218,985.212646 
	C979.509949,988.782715 981.473328,990.038757 985.269104,988.538513 
	C985.269104,981.151733 985.269104,973.826111 985.269165,965.500488 
M1124.823486,970.666748 
	C1125.585083,972.132507 1126.346680,973.598206 1127.203125,975.246216 
	C1123.904419,979.187073 1123.278809,983.410278 1126.607056,987.581848 
	C1121.984009,993.778320 1121.656006,998.416382 1125.420410,1002.085693 
	C1131.799316,1008.303772 1145.640869,1005.229370 1148.751221,996.903625 
	C1151.237549,990.248169 1148.138916,985.223572 1141.051025,984.579407 
	C1138.735229,984.368958 1136.385620,984.558533 1134.061646,984.407166 
	C1128.827759,984.066101 1127.902100,982.191772 1130.630615,977.281067 
	C1135.659302,978.849976 1140.831177,978.394104 1143.108154,973.333252 
	C1144.990723,969.149170 1144.880493,964.068542 1145.722656,958.964722 
	C1147.604492,959.047852 1150.220459,958.485535 1148.507812,954.254517 
	C1143.903687,953.843323 1139.194946,952.663330 1134.734985,953.280579 
	C1131.546265,953.721802 1127.466675,955.893311 1126.004517,958.525818 
	C1124.270264,961.648132 1124.917847,966.093445 1124.823486,970.666748 
M740.782837,977.824707 
	C742.416870,973.754883 744.050964,969.685059 745.684998,965.615234 
	C746.309998,965.732483 746.934937,965.849731 747.559875,965.966980 
	C750.583923,972.371948 753.825317,978.686279 756.547363,985.217041 
	C758.089233,988.916687 760.240173,989.968018 764.191772,988.586731 
	C760.330078,980.446045 756.716064,972.244080 752.557190,964.328491 
	C750.725952,960.842957 751.000916,958.370667 753.295166,955.354675 
	C756.525696,951.107910 759.322571,946.531250 762.304810,942.095642 
	C761.785156,941.669739 761.265503,941.243835 760.745850,940.817932 
	C750.201782,944.193237 749.170410,956.788940 740.785400,963.251099 
	C740.785400,955.833801 740.785400,948.941284 740.785400,941.798584 
	C738.786560,941.798584 737.255188,941.798584 735.690186,941.798584 
	C735.690186,957.720581 735.690186,973.264893 735.690186,988.877625 
	C737.462341,988.877625 738.896057,988.877625 740.782776,988.877625 
	C740.782776,985.338440 740.782776,982.039978 740.782837,977.824707 
M706.569824,969.987122 
	C705.417419,970.549377 704.264954,971.111694 703.112549,971.673950 
	C704.462341,973.106628 705.812195,974.539246 707.553894,976.387817 
	C707.253357,979.957275 706.882446,984.362244 706.487183,989.055847 
	C707.867737,988.964722 709.324036,989.041565 709.363464,988.840576 
	C710.268921,984.224609 711.020081,979.578430 711.818787,974.825806 
	C714.035278,974.825806 716.115234,974.825806 718.634766,974.825806 
	C718.232910,979.680603 717.856995,984.221191 717.481079,988.761780 
	C718.058594,988.922119 718.636108,989.082520 719.213684,989.242859 
	C723.616272,985.644104 720.410339,979.305115 722.968628,974.873047 
	C724.973206,974.064392 729.416016,975.526550 727.455627,970.312256 
	C726.086731,970.093201 724.641724,969.862000 722.955322,969.592102 
	C723.297791,966.358826 723.626770,963.252014 723.955688,960.146362 
	C725.751099,959.896057 727.186829,959.695862 728.397156,959.527161 
	C731.045593,954.482178 725.972961,955.739929 724.523987,954.467529 
	C724.857788,950.200989 725.165222,946.270874 725.472656,942.340820 
	C724.913696,942.172058 724.354797,942.003296 723.795898,941.834534 
	C719.640442,944.999268 722.601807,950.932373 720.096741,954.910522 
	C718.071594,954.910522 715.967224,954.910522 713.552368,954.910522 
	C713.901611,950.579407 714.230957,946.495056 714.560242,942.410706 
	C714.014465,942.239624 713.468689,942.068481 712.922913,941.897339 
	C708.870728,945.057251 711.340332,950.744385 710.072144,953.371094 
	C707.455017,955.173828 705.916077,956.233887 704.377197,957.293945 
	C705.710876,958.515930 707.044495,959.737915 709.251953,961.760559 
	C708.834595,963.654724 708.143372,966.791687 706.569824,969.987122 
M1059.461792,958.523071 
	C1063.788086,959.524597 1063.884888,963.105591 1063.955811,966.397217 
	C1064.116211,973.842041 1064.006226,981.292725 1064.006226,988.880005 
	C1065.994385,988.880005 1067.436157,988.880005 1068.931519,988.880005 
	C1068.931519,979.704712 1069.481934,970.705200 1068.772705,961.806030 
	C1068.099365,953.356079 1061.515503,950.620667 1054.490112,955.082458 
	C1053.620117,955.635132 1052.662842,956.050842 1051.126831,956.853699 
	C1051.126831,950.061340 1051.126831,943.973206 1051.126831,937.458801 
	C1049.141602,937.595642 1047.609741,937.701233 1046.186523,937.799377 
	C1046.186523,955.150391 1046.186523,971.904663 1046.186523,989.068420 
	C1047.969849,988.989014 1049.494995,988.921143 1051.202515,988.845154 
	C1051.202515,981.562683 1051.408081,974.742126 1051.137939,967.940430 
	C1050.918701,962.423279 1053.591309,959.648071 1059.461792,958.523071 
M995.855042,983.547668 
	C998.636230,987.983398 1002.480530,990.665222 1007.866150,989.849060 
	C1013.358215,989.016785 1017.255615,985.369934 1018.078857,980.210449 
	C1018.991760,974.489685 1019.138733,968.340759 1018.037720,962.686218 
	C1016.815674,956.409851 1011.655640,953.035767 1006.303467,953.015503 
	C1001.038208,952.995483 996.319031,956.574951 994.302185,962.601868 
	C992.003906,969.469360 992.126953,976.314697 995.855042,983.547668 
M1101.054321,960.604919 
	C1106.865112,956.905396 1110.196167,958.335938 1110.876465,964.942688 
	C1111.131592,967.419922 1111.049316,969.935303 1111.059814,972.433472 
	C1111.082886,977.894775 1111.066895,983.356262 1111.066895,988.853210 
	C1113.043945,988.853210 1114.492798,988.853210 1116.201416,988.853210 
	C1116.201416,980.952271 1116.285278,973.295044 1116.169800,965.640808 
	C1116.101318,961.092529 1115.819702,956.348816 1111.147827,953.889404 
	C1106.333008,951.354736 1102.550293,954.023010 1099.000488,957.050964 
	C1098.804688,957.217957 1098.382690,957.119629 1099.458740,957.033875 
	C1097.023438,955.410706 1095.504639,954.398499 1093.169434,952.842163 
	C1093.169434,965.747498 1093.169434,977.177063 1093.169434,988.760742 
	C1094.922974,988.760742 1096.454956,988.760742 1098.202759,988.760742 
	C1098.202759,981.266357 1098.047852,974.103271 1098.304565,966.954956 
	C1098.374390,965.012695 1099.685913,963.115051 1101.054321,960.604919 
M881.950806,975.491516 
	C881.950806,979.938293 881.950806,984.385071 881.950806,988.874878 
	C883.994568,988.874878 885.452637,988.874878 887.203552,988.874878 
	C887.203552,981.172668 887.147095,973.691711 887.227478,966.212219 
	C887.267273,962.501221 890.841370,958.690552 894.354675,958.565918 
	C899.020447,958.400513 899.509094,961.888794 899.919983,965.300293 
	C900.078613,966.617249 900.058044,967.959900 900.060669,969.290894 
	C900.073486,975.751465 900.066467,982.211975 900.066467,988.883545 
	C901.945129,988.883545 903.378357,988.883545 905.189636,988.883545 
	C905.189636,980.738037 905.306519,972.777588 905.143311,964.822937 
	C905.053345,960.436951 904.490601,955.928711 899.877502,953.746277 
	C895.221619,951.543640 891.565430,953.973816 888.169983,956.940430 
	C887.952393,957.130554 887.552979,957.112610 888.562744,956.859680 
	C886.090881,955.426208 884.454102,954.477051 881.950806,953.025330 
	C881.950806,961.210388 881.950806,967.852722 881.950806,975.491516 
M872.677490,963.098145 
	C870.420410,952.969238 863.533936,950.110413 854.554749,955.394043 
	C851.479004,957.203857 851.063721,958.931152 852.473022,960.263550 
	C857.403870,959.772217 861.274780,958.668518 864.785339,959.369446 
	C866.313904,959.674744 867.102844,963.684204 868.363220,966.291809 
	C864.907593,967.106018 862.589844,967.444580 860.428772,968.219788 
	C858.267944,968.994934 856.055969,969.926880 854.231873,971.282166 
	C849.627380,974.702759 848.726562,981.843933 852.053284,986.512268 
	C855.013062,990.665710 859.881165,991.072632 865.296265,987.608215 
	C866.104187,987.091309 866.883789,986.530090 866.652039,986.688171 
	C868.994019,987.826843 870.607727,988.611450 872.820190,989.687195 
	C872.820190,980.224365 872.820190,972.100464 872.677490,963.098145 
M824.849487,959.430725 
	C821.190369,966.118835 820.905396,973.160400 823.256409,980.215820 
	C826.179565,988.988525 834.641602,992.302734 842.436096,988.259583 
	C845.559875,986.639221 845.713562,985.058838 843.263977,983.649231 
	C839.204163,983.986816 834.952148,984.549805 831.628235,983.052429 
	C828.142517,981.482117 826.984253,977.407227 827.510254,972.865173 
	C833.916016,972.865173 839.991821,972.865173 845.993896,972.865173 
	C847.228577,963.103333 844.602051,956.170227 838.993530,953.791748 
	C834.076660,951.706604 829.859070,953.240479 824.849487,959.430725 
M921.004028,973.390442 
	C921.885559,973.857971 922.775391,974.310669 923.647217,974.795715 
	C926.673218,976.479492 928.164856,978.979065 926.542969,982.247559 
	C924.883911,985.590881 921.781433,985.559570 918.753784,984.390747 
	C916.927185,983.685547 915.278992,982.518127 913.220947,981.375305 
	C912.471741,982.505798 911.696106,983.676147 910.669067,985.225891 
	C912.749634,986.560547 914.423035,987.941406 916.331116,988.801697 
	C922.490540,991.578430 928.875244,989.520569 931.298767,984.163940 
	C933.935547,978.335571 931.795593,972.934937 925.559326,969.680847 
	C923.496887,968.604675 921.279053,967.745361 919.407349,966.403320 
	C916.550842,964.355347 916.095520,961.013306 918.947937,959.401367 
	C920.958008,958.265564 924.335327,959.498169 927.091614,959.777649 
	C927.637268,959.832947 928.134583,960.364380 928.950378,960.854065 
	C929.824463,959.309265 930.509338,958.098877 931.412659,956.502441 
	C929.138489,955.334229 927.329468,954.087402 925.326782,953.438721 
	C920.288391,951.806885 915.119202,954.067383 913.113098,958.512451 
	C910.927429,963.355469 912.280212,968.067383 916.828247,971.177124 
	C917.919922,971.923523 919.158691,972.454895 921.004028,973.390442 
M1022.734436,954.971375 
	C1023.665955,956.814453 1024.597534,958.657471 1025.529053,960.500549 
	C1026.022705,960.327393 1026.516479,960.154236 1027.010132,959.981140 
	C1027.010132,967.123047 1026.705933,974.281860 1027.101685,981.401794 
	C1027.450195,987.674377 1030.960083,990.519531 1036.374878,989.939087 
	C1040.045776,989.545593 1041.551270,988.020752 1039.418945,984.448914 
	C1033.509155,985.098877 1032.208618,984.060425 1032.122681,978.259460 
	C1032.029541,971.969604 1032.101685,965.677246 1032.101685,959.257690 
	C1034.819702,959.033203 1037.234131,958.833740 1039.954224,958.609131 
	C1039.801514,956.834473 1039.682617,955.451599 1039.562256,954.053284 
	C1036.892334,953.890686 1034.643311,953.753723 1032.103760,953.599060 
	C1032.103760,950.321716 1032.103760,947.377136 1032.103760,944.030518 
	C1030.395020,944.159119 1029.033813,944.261597 1028.435669,944.306641 
	C1025.649414,947.706238 1030.412231,953.843689 1022.734436,954.971375 
M1082.937012,954.338623 
	C1081.399048,954.200378 1079.861206,954.062134 1078.166382,953.909729 
	C1078.166382,965.868408 1078.166382,977.233459 1078.166382,988.780518 
	C1079.914185,988.780518 1081.444336,988.780518 1083.167114,988.780518 
	C1083.167114,977.374207 1083.167114,966.285034 1082.937012,954.338623 
M942.552673,973.239014 
	C944.990112,973.239014 947.427551,973.239014 950.039551,973.239014 
	C950.039551,971.518799 950.039551,970.186035 950.039551,968.891968 
	C937.595276,967.611633 936.569458,967.937195 937.254822,973.049561 
	C938.667542,973.111450 940.123596,973.175232 942.552673,973.239014 
M1083.831665,944.690063 
	C1082.997070,942.825500 1082.162476,940.960938 1081.327881,939.096375 
	C1080.072632,939.692200 1077.986450,940.060425 1077.747070,940.934387 
	C1077.335938,942.436096 1077.519043,945.025452 1078.488037,945.725464 
	C1079.499146,946.456116 1081.732910,945.494690 1083.831665,944.690063 
z"/>
<path fill="#FEFEFE" opacity="1.000000" stroke="none" 
	d="
M232.259354,248.764557 
	C237.758789,250.831696 242.977341,252.569717 247.991257,254.773376 
	C251.164246,256.167908 253.295761,255.755829 255.906204,253.381210 
	C272.785339,238.026993 289.833405,222.858444 306.837372,207.641647 
	C308.016357,206.586548 309.286743,205.633621 311.182526,204.088989 
	C311.905029,221.864944 312.584595,238.770279 313.280731,255.674927 
	C315.006317,297.578705 316.704651,339.483704 318.531586,381.383057 
	C318.688385,384.978577 317.812683,387.545197 315.162476,390.142242 
	C292.312744,412.533813 269.656403,435.122681 246.826218,457.534424 
	C244.079041,460.231293 243.070404,462.505859 244.091278,466.565674 
	C267.361084,559.103455 290.604736,651.648865 313.303436,744.327515 
	C315.539703,753.458130 315.015808,763.514709 314.357635,773.043762 
	C313.442963,786.285828 311.995331,799.607849 309.222412,812.563171 
	C307.417114,820.997559 303.101807,828.957214 299.426239,836.905457 
	C297.205505,841.707642 297.524628,843.546875 302.960388,844.454041 
	C312.850739,846.104553 322.182037,843.482483 331.047028,839.434387 
	C355.387726,828.319641 369.044830,801.728699 364.605103,772.993652 
	C360.387909,745.699097 351.416595,719.754761 340.874512,694.285889 
	C328.452240,664.274597 318.990692,633.463989 318.901886,600.564087 
	C318.851868,582.036499 323.969025,564.758301 332.790527,548.517334 
	C337.885956,539.136353 345.212952,532.593506 355.698547,529.853943 
	C360.835938,528.511719 365.872742,526.558838 371.088928,525.788208 
	C384.236298,523.845947 395.264679,532.628723 395.852295,545.009766 
	C396.495880,558.570190 386.674500,569.704468 373.601318,568.975342 
	C364.570770,568.471680 359.935883,572.350037 356.446503,580.128174 
	C349.383362,595.872498 349.175476,611.588867 354.351471,627.826538 
	C366.852478,667.043335 380.967316,705.649475 397.795166,743.222839 
	C407.725464,765.395203 410.464264,788.566101 408.624329,812.530334 
	C407.596741,825.914307 405.538940,839.034851 398.889832,850.953918 
	C386.928528,872.395264 367.667755,884.138733 344.459625,888.685730 
	C331.917023,891.143066 318.671021,890.280090 305.737610,890.399048 
	C292.084015,890.524719 278.424988,890.018677 264.767914,889.820007 
	C225.965134,889.255615 187.161301,888.751221 148.361313,888.036255 
	C146.172043,887.995972 143.520569,886.793579 141.915146,885.261414 
	C118.538300,862.950378 95.248055,840.547302 72.131027,817.967773 
	C70.111427,815.995117 68.627625,812.726379 68.297195,809.895996 
	C66.463211,794.186768 64.966431,778.435181 63.597660,762.677002 
	C63.331177,759.609131 63.784435,756.362976 64.504692,753.341858 
	C87.172897,658.257507 109.893227,563.185486 132.729111,468.141327 
	C133.622223,464.424133 132.924652,462.082672 130.241302,459.394562 
	C106.934013,436.045746 83.751984,412.571350 60.654446,389.014954 
	C59.227791,387.559937 57.970871,385.049561 58.077343,383.109344 
	C61.287552,324.611542 64.679344,266.123718 68.044235,207.634384 
	C68.090942,206.822571 68.157944,206.011932 68.287369,204.186874 
	C69.999580,205.531021 71.231461,206.413040 72.368736,207.403656 
	C89.452156,222.284042 106.584221,237.109833 123.532852,252.142395 
	C126.156166,254.469131 128.302689,254.783264 131.470764,253.653061 
	C149.788162,247.118408 168.144180,240.687668 186.568222,234.461761 
	C188.839447,233.694275 191.838852,233.666031 194.082565,234.466965 
	C206.756287,238.990997 219.302322,243.872711 232.259354,248.764557 
z"/>
<path fill="#FEFEFE" opacity="1.000000" stroke="none" 
	d="
M539.523193,621.077637 
	C539.523193,617.943481 539.523193,615.297241 539.523193,612.318420 
	C558.219177,612.318420 576.614502,612.318420 595.496460,612.318420 
	C599.008911,625.801331 602.574524,639.454468 606.121826,653.112244 
	C614.703125,686.151184 623.280151,719.191284 631.842834,752.235046 
	C632.425049,754.481689 632.587036,757.123962 636.632141,755.501465 
	C634.377869,707.939087 632.119507,660.290344 629.845276,612.307129 
	C649.989380,612.307129 669.892761,612.307129 690.038940,612.307129 
	C690.038940,703.727600 690.038940,795.121277 690.038940,886.750549 
	C672.346252,886.750549 654.735168,886.750549 636.637207,886.750549 
	C622.962585,835.713318 609.250122,784.535156 595.537659,733.356934 
	C594.766479,733.489380 593.995239,733.621826 593.224060,733.754211 
	C595.404846,784.621094 597.585632,835.487915 599.780090,886.674194 
	C579.791443,886.674194 560.030945,886.674194 539.523193,886.674194 
	C539.523193,798.367493 539.523193,709.966553 539.523193,621.077637 
z"/>
<path fill="#FEFEFE" opacity="1.000000" stroke="none" 
	d="
M995.277954,874.695618 
	C995.443298,878.820984 995.606995,882.475647 995.789917,886.558960 
	C975.854858,886.558960 955.969238,886.558960 935.802063,886.558960 
	C935.802063,795.299438 935.802063,703.879883 935.802063,612.221252 
	C954.357483,612.221252 972.772888,612.221252 991.477844,612.221252 
	C996.698120,632.278381 1001.900269,652.231506 1007.083740,672.189514 
	C1013.990295,698.781860 1020.852966,725.385742 1027.849731,751.954285 
	C1028.293457,753.639404 1029.730591,755.062866 1030.705444,756.608093 
	C1031.350342,756.335632 1031.995239,756.063171 1032.640015,755.790710 
	C1030.383911,708.144287 1028.127686,660.497925 1025.850830,612.414795 
	C1045.973511,612.414795 1065.979248,612.414795 1086.134033,612.414795 
	C1086.134033,703.768005 1086.134033,795.063416 1086.134033,886.672485 
	C1068.415161,886.672485 1050.673462,886.672485 1032.607178,886.672485 
	C1018.923218,835.577271 1005.230591,784.449768 991.537903,733.322327 
	C990.763245,733.435486 989.988647,733.548706 989.213989,733.661926 
	C991.234741,780.516235 993.255493,827.370605 995.277954,874.695618 
z"/>
<path fill="#FDFDFD" opacity="1.000000" stroke="none" 
	d="
M1356.514893,648.449707 
	C1370.218384,728.087952 1383.822754,807.303406 1397.471680,886.777527 
	C1376.864380,886.777527 1356.586060,886.777527 1335.797363,886.777527 
	C1334.779053,870.336304 1333.765381,853.967590 1332.733276,837.302490 
	C1321.613647,837.302490 1310.708374,837.302490 1299.257812,837.302490 
	C1297.219727,853.656860 1295.169556,870.107727 1293.094604,886.758301 
	C1272.815308,886.758301 1252.726074,886.758301 1232.313354,886.758301 
	C1249.357544,794.600830 1266.361816,702.658997 1283.433105,610.354614 
	C1305.484619,610.354614 1327.545776,610.354614 1349.966553,610.354614 
	C1352.104126,622.841064 1354.260010,635.433960 1356.514893,648.449707 
M1313.017944,656.720642 
	C1309.826050,704.662842 1306.634277,752.605042 1303.432373,800.699219 
	C1311.469238,800.699219 1320.041992,800.699219 1328.490723,800.699219 
	C1324.864380,752.009949 1321.259399,703.608032 1317.612427,654.643799 
	C1315.820557,655.123108 1314.482544,655.481018 1313.017944,656.720642 
z"/>
<path fill="#FCFCFC" opacity="1.000000" stroke="none" 
	d="
M782.668335,733.905273 
	C789.699707,734.588867 796.651062,734.862000 803.604858,734.957092 
	C810.748291,735.054810 817.894165,734.978760 825.296875,734.978760 
	C825.296875,747.039307 825.296875,758.792419 825.296875,771.014526 
	C811.039490,771.014526 796.953491,771.014526 782.574158,771.014526 
	C782.574158,809.754883 782.574158,848.028870 782.574158,886.645447 
	C762.086304,886.645447 741.899902,886.645447 721.490479,886.645447 
	C721.490479,795.263245 721.490479,704.009155 721.490479,612.366821 
	C755.995422,612.366821 790.527588,612.366821 825.309937,612.366821 
	C825.309937,624.081726 825.309937,635.834717 825.309937,648.047485 
	C811.007019,648.047485 796.915710,648.047485 782.589417,648.047485 
	C782.589417,676.809570 782.589417,705.113098 782.668335,733.905273 
z"/>
<path fill="#FDFDFD" opacity="1.000000" stroke="none" 
	d="
M472.000000,611.981079 
	C484.806458,611.981079 497.112915,611.981079 509.757507,611.981079 
	C509.757507,703.578552 509.757507,794.918762 509.757507,886.623169 
	C489.908356,886.623169 469.845551,886.623169 449.433960,886.623169 
	C449.433960,795.408569 449.433960,704.070801 449.433960,611.981079 
	C456.667664,611.981079 464.083832,611.981079 472.000000,611.981079 
z"/>
<path fill="#FDFDFD" opacity="1.000000" stroke="none" 
	d="
M844.087158,771.000000 
	C844.087158,717.892883 844.087158,665.285828 844.087158,612.330078 
	C864.372009,612.330078 884.421936,612.330078 904.785645,612.330078 
	C904.785645,703.626831 904.785645,794.966736 904.785645,886.647034 
	C884.852417,886.647034 864.791687,886.647034 844.087158,886.647034 
	C844.087158,848.297241 844.087158,809.898621 844.087158,771.000000 
z"/>
<path fill="#FDFDFD" opacity="1.000000" stroke="none" 
	d="
M1478.097290,864.999939 
	C1478.097290,872.466919 1478.097290,879.433960 1478.097290,886.692566 
	C1457.745483,886.692566 1437.688232,886.692566 1417.358398,886.692566 
	C1417.358398,795.253967 1417.358398,703.916199 1417.358398,612.279602 
	C1437.474731,612.279602 1457.527100,612.279602 1478.097290,612.279602 
	C1478.097290,696.418884 1478.097290,780.459473 1478.097290,864.999939 
z"/>
<path fill="#FEFEFE" opacity="1.000000" stroke="none" 
	d="
M1309.000244,946.809326 
	C1369.979126,946.809326 1430.457886,946.809326 1491.242676,946.809326 
	C1491.242676,951.005249 1491.242676,954.903137 1491.242676,958.978577 
	C1384.403442,958.978577 1277.785034,958.978577 1170.845459,958.978577 
	C1170.845459,955.095398 1170.845459,951.348450 1170.845459,946.809326 
	C1216.704590,946.809326 1262.602295,946.809326 1309.000244,946.809326 
z"/>
<path fill="#FDFDFD" opacity="1.000000" stroke="none" 
	d="
M1110.272461,793.705750 
	C1110.271851,784.288574 1110.271851,775.346252 1110.271851,766.196045 
	C1147.137085,766.196045 1183.532227,766.196045 1220.241333,766.196045 
	C1220.241333,776.264404 1220.241333,786.328125 1220.241333,796.758545 
	C1218.802734,796.835266 1217.371826,796.977661 1215.940796,796.978149 
	C1182.323730,796.990662 1148.706787,797.008972 1115.089844,796.932495 
	C1113.190063,796.928162 1109.946899,798.430542 1110.272461,793.705750 
z"/>
<path fill="#FEFEFE" opacity="1.000000" stroke="none" 
	d="
M482.000122,952.810059 
	C540.247437,952.810059 597.994751,952.810059 656.009766,952.810059 
	C656.009766,956.898682 656.009766,960.664429 656.009766,964.793030 
	C568.873596,964.793030 481.584839,964.793030 394.072754,964.793030 
	C394.072754,960.873535 394.072754,957.134583 394.072754,952.810059 
	C423.328796,952.810059 452.414459,952.810059 482.000122,952.810059 
z"/>
<path fill="#E1E1E1" opacity="1.000000" stroke="none" 
	d="
M803.698792,955.364624 
	C804.680664,951.934692 805.752869,948.929504 806.337524,945.832336 
	C807.166565,941.440430 809.598022,940.492554 813.749451,941.964783 
	C813.749451,957.461914 813.749451,973.040894 813.749451,988.873169 
	C812.274353,988.873169 810.859802,988.873169 809.145752,988.873169 
	C809.145752,977.847961 809.145752,967.053772 809.145752,956.259644 
	C808.757568,956.162415 808.369324,956.065186 807.981140,955.968018 
	C807.315979,958.213745 806.658386,960.461853 805.984009,962.704834 
	C804.114868,968.921997 802.320740,975.164001 800.291626,981.328552 
	C799.912048,982.481628 798.579773,983.321045 797.687134,984.305176 
	C796.775330,983.341919 795.402344,982.529968 795.028259,981.390198 
	C792.951904,975.063965 791.127014,968.655396 789.194946,962.281372 
	C788.736145,960.767700 788.196228,959.278564 786.618774,957.881653 
	C786.618774,968.138550 786.618774,978.395447 786.618774,988.838379 
	C784.534729,988.838379 783.123657,988.838379 781.535156,988.838379 
	C781.535156,973.111145 781.535156,957.664795 781.535156,942.066895 
	C785.643616,940.496460 787.954956,941.307495 789.146973,945.930847 
	C791.537231,955.201294 794.437561,964.340210 798.324646,973.607300 
	C800.073547,967.654297 801.822510,961.701294 803.698792,955.364624 
z"/>
<path fill="#E6E6E6" opacity="1.000000" stroke="none" 
	d="
M985.269165,966.000488 
	C985.269104,973.826111 985.269104,981.151733 985.269104,988.538513 
	C981.473328,990.038757 979.509949,988.782715 977.923218,985.212646 
	C973.359314,974.944092 968.437317,964.834595 962.710327,954.822754 
	C962.710327,966.099243 962.710327,977.375732 962.710327,988.877563 
	C960.721558,988.877563 959.286987,988.877563 957.612915,988.877563 
	C957.612915,973.274841 957.612915,957.825684 957.612915,942.134094 
	C960.793518,940.661499 962.871338,941.270020 964.470093,944.879822 
	C968.582336,954.164429 973.026306,963.302307 977.349304,972.493286 
	C977.953064,973.777039 978.622009,975.030029 980.021423,976.100952 
	C980.021423,964.802063 980.021423,953.503174 980.021423,941.824890 
	C981.895691,941.824890 983.411804,941.824890 985.269165,941.824890 
	C985.269165,949.889404 985.269165,957.694946 985.269165,966.000488 
z"/>
<path fill="#ECECEC" opacity="1.000000" stroke="none" 
	d="
M1124.678345,970.316040 
	C1124.917847,966.093445 1124.270264,961.648132 1126.004517,958.525818 
	C1127.466675,955.893311 1131.546265,953.721802 1134.734985,953.280579 
	C1139.194946,952.663330 1143.903687,953.843323 1148.507812,954.254517 
	C1150.220459,958.485535 1147.604492,959.047852 1145.722656,958.964722 
	C1144.880493,964.068542 1144.990723,969.149170 1143.108154,973.333252 
	C1140.831177,978.394104 1135.659302,978.849976 1130.630615,977.281067 
	C1127.902100,982.191772 1128.827759,984.066101 1134.061646,984.407166 
	C1136.385620,984.558533 1138.735229,984.368958 1141.051025,984.579407 
	C1148.138916,985.223572 1151.237549,990.248169 1148.751221,996.903625 
	C1145.640869,1005.229370 1131.799316,1008.303772 1125.420410,1002.085693 
	C1121.656006,998.416382 1121.984009,993.778320 1126.607056,987.581848 
	C1123.278809,983.410278 1123.904419,979.187073 1127.203125,975.246216 
	C1126.346680,973.598206 1125.585083,972.132507 1124.678345,970.316040 
M1144.189697,992.606628 
	C1141.482422,987.712769 1136.752197,990.640320 1133.023193,989.694336 
	C1130.194092,988.976501 1128.079712,990.057129 1127.947876,992.738708 
	C1127.841675,994.899658 1128.466553,997.938049 1129.947510,999.182922 
	C1135.067017,1003.486572 1142.882446,1000.157166 1144.189697,992.606628 
M1140.251099,962.404419 
	C1137.668457,957.346863 1133.588013,956.026611 1130.826294,959.566956 
	C1128.130249,963.023132 1127.998779,967.145447 1130.331421,970.684570 
	C1131.345703,972.223267 1134.312378,973.745850 1135.940796,973.361572 
	C1140.200562,972.356506 1140.722778,968.445374 1140.709229,964.635864 
	C1140.707397,964.148926 1140.537598,963.662720 1140.251099,962.404419 
z"/>
<path fill="#E1E1E1" opacity="1.000000" stroke="none" 
	d="
M740.782837,978.283142 
	C740.782776,982.039978 740.782776,985.338440 740.782776,988.877625 
	C738.896057,988.877625 737.462341,988.877625 735.690186,988.877625 
	C735.690186,973.264893 735.690186,957.720581 735.690186,941.798584 
	C737.255188,941.798584 738.786560,941.798584 740.785400,941.798584 
	C740.785400,948.941284 740.785400,955.833801 740.785400,963.251099 
	C749.170410,956.788940 750.201782,944.193237 760.745850,940.817932 
	C761.265503,941.243835 761.785156,941.669739 762.304810,942.095642 
	C759.322571,946.531250 756.525696,951.107910 753.295166,955.354675 
	C751.000916,958.370667 750.725952,960.842957 752.557190,964.328491 
	C756.716064,972.244080 760.330078,980.446045 764.191772,988.586731 
	C760.240173,989.968018 758.089233,988.916687 756.547363,985.217041 
	C753.825317,978.686279 750.583923,972.371948 747.559875,965.966980 
	C746.934937,965.849731 746.309998,965.732483 745.684998,965.615234 
	C744.050964,969.685059 742.416870,973.754883 740.782837,978.283142 
z"/>
<path fill="#E1E1E1" opacity="1.000000" stroke="none" 
	d="
M707.010986,969.957886 
	C708.143372,966.791687 708.834595,963.654724 709.251953,961.760559 
	C707.044495,959.737915 705.710876,958.515930 704.377197,957.293945 
	C705.916077,956.233887 707.455017,955.173828 710.072144,953.371094 
	C711.340332,950.744385 708.870728,945.057251 712.922913,941.897339 
	C713.468689,942.068481 714.014465,942.239624 714.560242,942.410706 
	C714.230957,946.495056 713.901611,950.579407 713.552368,954.910522 
	C715.967224,954.910522 718.071594,954.910522 720.096741,954.910522 
	C722.601807,950.932373 719.640442,944.999268 723.795898,941.834534 
	C724.354797,942.003296 724.913696,942.172058 725.472656,942.340820 
	C725.165222,946.270874 724.857788,950.200989 724.523987,954.467529 
	C725.972961,955.739929 731.045593,954.482178 728.397156,959.527161 
	C727.186829,959.695862 725.751099,959.896057 723.955688,960.146362 
	C723.626770,963.252014 723.297791,966.358826 722.955322,969.592102 
	C724.641724,969.862000 726.086731,970.093201 727.455627,970.312256 
	C729.416016,975.526550 724.973206,974.064392 722.968628,974.873047 
	C720.410339,979.305115 723.616272,985.644104 719.213684,989.242859 
	C718.636108,989.082520 718.058594,988.922119 717.481079,988.761780 
	C717.856995,984.221191 718.232910,979.680603 718.634766,974.825806 
	C716.115234,974.825806 714.035278,974.825806 711.818787,974.825806 
	C711.020081,979.578430 710.268921,984.224609 709.363464,988.840576 
	C709.324036,989.041565 707.867737,988.964722 706.487183,989.055847 
	C706.882446,984.362244 707.253357,979.957275 707.553894,976.387817 
	C705.812195,974.539246 704.462341,973.106628 703.112549,971.673950 
	C704.264954,971.111694 705.417419,970.549377 707.010986,969.957886 
M719.709778,966.047180 
	C719.843567,964.114624 719.977356,962.182007 720.121094,960.105713 
	C717.515076,960.105713 715.293518,960.105713 712.842773,960.105713 
	C712.554077,963.474670 712.292236,966.531067 711.969177,970.300842 
	C714.942383,968.934143 719.069580,972.732788 719.709778,966.047180 
z"/>
<path fill="#ECECEC" opacity="1.000000" stroke="none" 
	d="
M1059.035400,958.514038 
	C1053.591309,959.648071 1050.918701,962.423279 1051.137939,967.940430 
	C1051.408081,974.742126 1051.202515,981.562683 1051.202515,988.845154 
	C1049.494995,988.921143 1047.969849,988.989014 1046.186523,989.068420 
	C1046.186523,971.904663 1046.186523,955.150391 1046.186523,937.799377 
	C1047.609741,937.701233 1049.141602,937.595642 1051.126831,937.458801 
	C1051.126831,943.973206 1051.126831,950.061340 1051.126831,956.853699 
	C1052.662842,956.050842 1053.620117,955.635132 1054.490112,955.082458 
	C1061.515503,950.620667 1068.099365,953.356079 1068.772705,961.806030 
	C1069.481934,970.705200 1068.931519,979.704712 1068.931519,988.880005 
	C1067.436157,988.880005 1065.994385,988.880005 1064.006226,988.880005 
	C1064.006226,981.292725 1064.116211,973.842041 1063.955811,966.397217 
	C1063.884888,963.105591 1063.788086,959.524597 1059.035400,958.514038 
z"/>
<path fill="#EAEAEA" opacity="1.000000" stroke="none" 
	d="
M995.660156,983.232361 
	C992.126953,976.314697 992.003906,969.469360 994.302185,962.601868 
	C996.319031,956.574951 1001.038208,952.995483 1006.303467,953.015503 
	C1011.655640,953.035767 1016.815674,956.409851 1018.037720,962.686218 
	C1019.138733,968.340759 1018.991760,974.489685 1018.078857,980.210449 
	C1017.255615,985.369934 1013.358215,989.016785 1007.866150,989.849060 
	C1002.480530,990.665222 998.636230,987.983398 995.660156,983.232361 
M1014.237793,969.729614 
	C1013.783447,967.631470 1013.912292,965.089478 1012.734497,963.541992 
	C1011.077698,961.364929 1008.437561,958.537170 1006.243591,958.559021 
	C1004.019470,958.581177 1000.913452,961.291321 999.802734,963.598694 
	C997.181213,969.044800 997.247742,975.058594 1000.292847,980.379333 
	C1001.430115,982.366272 1004.319824,984.505066 1006.385559,984.480591 
	C1008.446106,984.456177 1011.316650,982.226135 1012.316406,980.211060 
	C1013.723450,977.375488 1013.732849,973.846497 1014.237793,969.729614 
z"/>
<path fill="#ECECEC" opacity="1.000000" stroke="none" 
	d="
M1100.740967,960.900879 
	C1099.685913,963.115051 1098.374390,965.012695 1098.304565,966.954956 
	C1098.047852,974.103271 1098.202759,981.266357 1098.202759,988.760742 
	C1096.454956,988.760742 1094.922974,988.760742 1093.169434,988.760742 
	C1093.169434,977.177063 1093.169434,965.747498 1093.169434,952.842163 
	C1095.504639,954.398499 1097.023438,955.410706 1099.458740,957.033875 
	C1098.382690,957.119629 1098.804688,957.217957 1099.000488,957.050964 
	C1102.550293,954.023010 1106.333008,951.354736 1111.147827,953.889404 
	C1115.819702,956.348816 1116.101318,961.092529 1116.169800,965.640808 
	C1116.285278,973.295044 1116.201416,980.952271 1116.201416,988.853210 
	C1114.492798,988.853210 1113.043945,988.853210 1111.066895,988.853210 
	C1111.066895,983.356262 1111.082886,977.894775 1111.059814,972.433472 
	C1111.049316,969.935303 1111.131592,967.419922 1110.876465,964.942688 
	C1110.196167,958.335938 1106.865112,956.905396 1100.740967,960.900879 
z"/>
<path fill="#ECECEC" opacity="1.000000" stroke="none" 
	d="
M881.950806,974.993286 
	C881.950806,967.852722 881.950806,961.210388 881.950806,953.025330 
	C884.454102,954.477051 886.090881,955.426208 888.562744,956.859680 
	C887.552979,957.112610 887.952393,957.130554 888.169983,956.940430 
	C891.565430,953.973816 895.221619,951.543640 899.877502,953.746277 
	C904.490601,955.928711 905.053345,960.436951 905.143311,964.822937 
	C905.306519,972.777588 905.189636,980.738037 905.189636,988.883545 
	C903.378357,988.883545 901.945129,988.883545 900.066467,988.883545 
	C900.066467,982.211975 900.073486,975.751465 900.060669,969.290894 
	C900.058044,967.959900 900.078613,966.617249 899.919983,965.300293 
	C899.509094,961.888794 899.020447,958.400513 894.354675,958.565918 
	C890.841370,958.690552 887.267273,962.501221 887.227478,966.212219 
	C887.147095,973.691711 887.203552,981.172668 887.203552,988.874878 
	C885.452637,988.874878 883.994568,988.874878 881.950806,988.874878 
	C881.950806,984.385071 881.950806,979.938293 881.950806,974.993286 
z"/>
<path fill="#EBEBEB" opacity="1.000000" stroke="none" 
	d="
M872.748840,963.537354 
	C872.820190,972.100464 872.820190,980.224365 872.820190,989.687195 
	C870.607727,988.611450 868.994019,987.826843 866.652039,986.688171 
	C866.883789,986.530090 866.104187,987.091309 865.296265,987.608215 
	C859.881165,991.072632 855.013062,990.665710 852.053284,986.512268 
	C848.726562,981.843933 849.627380,974.702759 854.231873,971.282166 
	C856.055969,969.926880 858.267944,968.994934 860.428772,968.219788 
	C862.589844,967.444580 864.907593,967.106018 868.363220,966.291809 
	C867.102844,963.684204 866.313904,959.674744 864.785339,959.369446 
	C861.274780,958.668518 857.403870,959.772217 852.473022,960.263550 
	C851.063721,958.931152 851.479004,957.203857 854.554749,955.394043 
	C863.533936,950.110413 870.420410,952.969238 872.748840,963.537354 
M857.834778,974.266052 
	C854.775391,977.208191 853.983948,980.519409 857.056519,983.768250 
	C859.312195,986.153442 864.972412,984.926392 866.762634,981.125854 
	C868.099304,978.288147 867.748474,974.655640 868.291748,970.210144 
	C864.215576,971.725525 861.347961,972.791626 857.834778,974.266052 
z"/>
<path fill="#EEEEEE" opacity="1.000000" stroke="none" 
	d="
M825.039917,959.113953 
	C829.859070,953.240479 834.076660,951.706604 838.993530,953.791748 
	C844.602051,956.170227 847.228577,963.103333 845.993896,972.865173 
	C839.991821,972.865173 833.916016,972.865173 827.510254,972.865173 
	C826.984253,977.407227 828.142517,981.482117 831.628235,983.052429 
	C834.952148,984.549805 839.204163,983.986816 843.263977,983.649231 
	C845.713562,985.058838 845.559875,986.639221 842.436096,988.259583 
	C834.641602,992.302734 826.179565,988.988525 823.256409,980.215820 
	C820.905396,973.160400 821.190369,966.118835 825.039917,959.113953 
M841.816956,967.380859 
	C841.584778,965.914185 841.793396,964.134216 841.022827,963.050354 
	C839.683777,961.166748 837.917175,958.698242 835.999878,958.363220 
	C834.058838,958.023987 831.176514,959.470032 829.698853,961.057678 
	C828.112549,962.762085 827.681519,965.541748 826.370178,968.781494 
	C832.234619,968.516907 836.821350,968.309998 841.816956,967.380859 
z"/>
<path fill="#EAEAEA" opacity="1.000000" stroke="none" 
	d="
M920.666931,973.237793 
	C919.158691,972.454895 917.919922,971.923523 916.828247,971.177124 
	C912.280212,968.067383 910.927429,963.355469 913.113098,958.512451 
	C915.119202,954.067383 920.288391,951.806885 925.326782,953.438721 
	C927.329468,954.087402 929.138489,955.334229 931.412659,956.502441 
	C930.509338,958.098877 929.824463,959.309265 928.950378,960.854065 
	C928.134583,960.364380 927.637268,959.832947 927.091614,959.777649 
	C924.335327,959.498169 920.958008,958.265564 918.947937,959.401367 
	C916.095520,961.013306 916.550842,964.355347 919.407349,966.403320 
	C921.279053,967.745361 923.496887,968.604675 925.559326,969.680847 
	C931.795593,972.934937 933.935547,978.335571 931.298767,984.163940 
	C928.875244,989.520569 922.490540,991.578430 916.331116,988.801697 
	C914.423035,987.941406 912.749634,986.560547 910.669067,985.225891 
	C911.696106,983.676147 912.471741,982.505798 913.220947,981.375305 
	C915.278992,982.518127 916.927185,983.685547 918.753784,984.390747 
	C921.781433,985.559570 924.883911,985.590881 926.542969,982.247559 
	C928.164856,978.979065 926.673218,976.479492 923.647217,974.795715 
	C922.775391,974.310669 921.885559,973.857971 920.666931,973.237793 
z"/>
<path fill="#EBEBEB" opacity="1.000000" stroke="none" 
	d="
M1022.968262,954.634033 
	C1030.412231,953.843689 1025.649414,947.706238 1028.435669,944.306641 
	C1029.033813,944.261597 1030.395020,944.159119 1032.103760,944.030518 
	C1032.103760,947.377136 1032.103760,950.321716 1032.103760,953.599060 
	C1034.643311,953.753723 1036.892334,953.890686 1039.562256,954.053284 
	C1039.682617,955.451599 1039.801514,956.834473 1039.954224,958.609131 
	C1037.234131,958.833740 1034.819702,959.033203 1032.101685,959.257690 
	C1032.101685,965.677246 1032.029541,971.969604 1032.122681,978.259460 
	C1032.208618,984.060425 1033.509155,985.098877 1039.418945,984.448914 
	C1041.551270,988.020752 1040.045776,989.545593 1036.374878,989.939087 
	C1030.960083,990.519531 1027.450195,987.674377 1027.101685,981.401794 
	C1026.705933,974.281860 1027.010132,967.123047 1027.010132,959.981140 
	C1026.516479,960.154236 1026.022705,960.327393 1025.529053,960.500549 
	C1024.597534,958.657471 1023.665955,956.814453 1022.968262,954.634033 
z"/>
<path fill="#ECECEC" opacity="1.000000" stroke="none" 
	d="
M1083.052002,954.767212 
	C1083.167114,966.285034 1083.167114,977.374207 1083.167114,988.780518 
	C1081.444336,988.780518 1079.914185,988.780518 1078.166382,988.780518 
	C1078.166382,977.233459 1078.166382,965.868408 1078.166382,953.909729 
	C1079.861206,954.062134 1081.399048,954.200378 1083.052002,954.767212 
z"/>
<path fill="#FCFCFC" opacity="1.000000" stroke="none" 
	d="
M942.066162,973.239014 
	C940.123596,973.175232 938.667542,973.111450 937.254822,973.049561 
	C936.569458,967.937195 937.595276,967.611633 950.039551,968.891968 
	C950.039551,970.186035 950.039551,971.518799 950.039551,973.239014 
	C947.427551,973.239014 944.990112,973.239014 942.066162,973.239014 
z"/>
<path fill="#E6E6E6" opacity="1.000000" stroke="none" 
	d="
M1083.631958,944.981506 
	C1081.732910,945.494690 1079.499146,946.456116 1078.488037,945.725464 
	C1077.519043,945.025452 1077.335938,942.436096 1077.747070,940.934387 
	C1077.986450,940.060425 1080.072632,939.692200 1081.327881,939.096313 
	C1082.162476,940.960938 1082.997070,942.825500 1083.631958,944.981506 
z"/>
<path fill="#080808" opacity="1.000000" stroke="none" 
	d="
M1313.081299,656.279785 
	C1314.482544,655.481018 1315.820557,655.123108 1317.612427,654.643799 
	C1321.259399,703.608032 1324.864380,752.009949 1328.490723,800.699219 
	C1320.041992,800.699219 1311.469238,800.699219 1303.432373,800.699219 
	C1306.634277,752.605042 1309.826050,704.662842 1313.081299,656.279785 
z"/>
<path fill="#090909" opacity="1.000000" stroke="none" 
	d="
M1144.255859,993.022827 
	C1142.882446,1000.157166 1135.067017,1003.486572 1129.947510,999.182922 
	C1128.466553,997.938049 1127.841675,994.899658 1127.947876,992.738708 
	C1128.079712,990.057129 1130.194092,988.976501 1133.023193,989.694336 
	C1136.752197,990.640320 1141.482422,987.712769 1144.255859,993.022827 
z"/>
<path fill="#0F0F0F" opacity="1.000000" stroke="none" 
	d="
M1140.348389,962.790283 
	C1140.537598,963.662720 1140.707397,964.148926 1140.709229,964.635864 
	C1140.722778,968.445374 1140.200562,972.356506 1135.940796,973.361572 
	C1134.312378,973.745850 1131.345703,972.223267 1130.331421,970.684570 
	C1127.998779,967.145447 1128.130249,963.023132 1130.826294,959.566956 
	C1133.588013,956.026611 1137.668457,957.346863 1140.348389,962.790283 
z"/>
<path fill="#0F0F0F" opacity="1.000000" stroke="none" 
	d="
M719.651550,966.499390 
	C719.069580,972.732788 714.942383,968.934143 711.969177,970.300842 
	C712.292236,966.531067 712.554077,963.474670 712.842773,960.105713 
	C715.293518,960.105713 717.515076,960.105713 720.121094,960.105713 
	C719.977356,962.182007 719.843567,964.114624 719.651550,966.499390 
z"/>
<path fill="#090909" opacity="1.000000" stroke="none" 
	d="
M1014.288879,970.171814 
	C1013.732849,973.846497 1013.723450,977.375488 1012.316406,980.211060 
	C1011.316650,982.226135 1008.446106,984.456177 1006.385559,984.480591 
	C1004.319824,984.505066 1001.430115,982.366272 1000.292847,980.379333 
	C997.247742,975.058594 997.181213,969.044800 999.802734,963.598694 
	C1000.913452,961.291321 1004.019470,958.581177 1006.243591,958.559021 
	C1008.437561,958.537170 1011.077698,961.364929 1012.734497,963.541992 
	C1013.912292,965.089478 1013.783447,967.631470 1014.288879,970.171814 
z"/>
<path fill="#131313" opacity="1.000000" stroke="none" 
	d="
M858.157532,974.061890 
	C861.347961,972.791626 864.215576,971.725525 868.291748,970.210144 
	C867.748474,974.655640 868.099304,978.288147 866.762634,981.125854 
	C864.972412,984.926392 859.312195,986.153442 857.056519,983.768250 
	C853.983948,980.519409 854.775391,977.208191 858.157532,974.061890 
z"/>
<path fill="#191919" opacity="1.000000" stroke="none" 
	d="
M841.612549,967.741943 
	C836.821350,968.309998 832.234619,968.516907 826.370178,968.781494 
	C827.681519,965.541748 828.112549,962.762085 829.698853,961.057678 
	C831.176514,959.470032 834.058838,958.023987 835.999878,958.363220 
	C837.917175,958.698242 839.683777,961.166748 841.022827,963.050354 
	C841.793396,964.134216 841.584778,965.914185 841.612549,967.741943 
z"/>
</svg>