<svg width="1597" height="1597" xmlns="http://www.w3.org/2000/svg">
 <g>
  <title>background</title>
  <rect x="-1" y="-1" width="1599" height="1599" id="canvas_background" fill="none"/>
 </g>

 <g>
  <title>Layer 1</title>
  <path stroke-width="99" fill="none" d="m739.99997,1598c-246.99997,0 -493.49991,0 -739.9999,0c-0.00003,-532.33325 -0.00003,-1064.66638 -0.00007,-1596.99969c532.33304,-0.0001 1064.66611,-0.0001 1596.99948,-0.0002c0.00012,532.3329 0.00012,1064.66591 0.00025,1596.9994c-285.49976,0.00049 -570.99976,0.00049 -856.99976,0.00049m-509.10812,-1349.36746c-12.58956,-4.75983 -25.13559,-9.64154 -37.80932,-14.16558c-2.24371,-0.80093 -5.24311,-0.77268 -7.51434,-0.0052c-18.42404,6.22591 -36.78006,12.65665 -55.09746,19.1913c-3.16807,1.1302 -5.31459,0.81607 -7.93791,-1.51067c-16.94863,-15.03256 -34.08069,-29.85835 -51.16411,-44.73873c-1.13728,-0.99062 -2.36916,-1.87264 -4.08137,-3.21679c-0.12943,1.82506 -0.19643,2.6357 -0.24313,3.44751c-3.3649,58.48934 -6.75669,116.97716 -9.9669,175.47496c-0.10647,1.94022 1.15045,4.4506 2.57711,5.90561c23.09753,23.5564 46.27956,47.0308 69.58685,70.37961c2.68335,2.68811 3.38092,5.02957 2.48781,8.74677c-22.83588,95.04416 -45.55621,190.11618 -68.22442,285.20053c-0.72025,3.02112 -1.17351,6.26727 -0.90703,9.33514c1.36877,15.75818 2.86555,31.50977 4.69954,47.219c0.33042,2.83038 1.81423,6.09912 3.83383,8.07177c23.11702,22.57953 46.40727,44.98261 69.78412,67.29364c1.60542,1.53217 4.25689,2.73456 6.44616,2.77484c38.79999,0.71497 77.60382,1.21937 116.4066,1.78376c13.65708,0.19867 27.31611,0.70471 40.9697,0.57904c12.93341,-0.11896 26.17941,0.74402 38.72202,-1.71332c23.20812,-4.547 42.4689,-16.29047 54.4302,-37.73181c6.64911,-11.91907 8.70691,-25.03961 9.7345,-38.42359c1.83993,-23.96423 -0.89887,-47.13513 -10.82916,-69.30749c-16.82785,-37.57336 -30.94269,-76.17951 -43.4437,-115.3963c-5.17599,-16.23767 -4.96811,-31.95404 2.09503,-47.69837c3.48938,-7.77813 8.12427,-11.65649 17.15482,-11.15283c13.07318,0.72913 22.89456,-10.40515 22.25098,-23.96557c-0.58762,-12.38105 -11.616,-21.16382 -24.76337,-19.22156c-5.21619,0.77063 -10.25299,2.72351 -15.39038,4.06573c-10.4856,2.73957 -17.81259,9.28241 -22.90802,18.66339c-8.82151,16.24097 -13.93866,33.51917 -13.88864,52.04676c0.0888,32.8999 9.55035,63.71051 21.97262,93.7218c10.54208,25.46887 19.5134,51.41321 23.73059,78.70776c4.43973,28.73505 -9.21737,55.32599 -33.55807,66.44074c-8.86499,4.04809 -18.19629,6.67016 -28.08664,5.01965c-5.43576,-0.90716 -5.75488,-2.7464 -3.53415,-7.54858c3.67557,-7.94825 7.99087,-15.9079 9.79617,-24.34229c2.77292,-12.95532 4.22055,-26.27734 5.13523,-39.51941c0.65817,-9.52905 1.18206,-19.58563 -1.0542,-28.71625c-22.6987,-92.67864 -45.94236,-185.22405 -69.21216,-277.76184c-1.02088,-4.05981 -0.01224,-6.33438 2.73494,-9.03125c22.83018,-22.41174 45.48652,-45.00061 68.33626,-67.39218c2.6502,-2.59704 3.5259,-5.16366 3.36911,-8.75918c-1.82694,-41.89936 -3.52527,-83.80435 -5.25086,-125.70813c-0.69614,-16.90465 -1.3757,-33.80999 -2.0982,-51.58594c-1.89579,1.54463 -3.16617,2.49756 -4.34516,3.55266c-17.00396,15.21679 -34.05203,30.38534 -50.93117,45.73956c-2.61044,2.37462 -4.74195,2.7867 -7.91494,1.39217c-5.01392,-2.20366 -10.23247,-3.94168 -16.09938,-6.14084m307.63131,372.93307c0,88.40094 0,176.80188 0,265.10858c20.50775,0 40.26825,0 60.2569,0c-2.19446,-51.18627 -4.37524,-102.0531 -6.55603,-152.91998c0.77118,-0.13238 1.54242,-0.26483 2.3136,-0.39728c13.71246,51.17823 27.42492,102.35639 41.09955,153.39362c18.09796,0 35.70904,0 53.40173,0c0,-91.62927 0,-183.02295 0,-274.44342c-20.14618,0 -40.04956,0 -60.19366,0c2.27423,47.98321 4.53259,95.63196 6.78686,143.19434c-4.0451,1.62249 -4.20709,-1.01978 -4.78931,-3.26642c-8.56268,-33.04377 -17.1397,-66.08387 -25.721,-99.12281c-3.54731,-13.65777 -7.11292,-27.31091 -10.62537,-40.79382c-18.88196,0 -37.27728,0 -55.97327,0c0,2.97882 0,5.62506 0,9.24719m455.75306,252.65931c-2.02076,-46.85432 -4.04151,-93.70868 -6.06226,-140.56299c0.77466,-0.11322 1.54925,-0.22644 2.32391,-0.3396c13.69269,51.12744 27.38532,102.25494 41.06928,153.35016c18.06628,0 35.80798,0 53.52685,0c0,-91.60907 0,-182.90448 0,-274.25769c-20.15478,0 -40.16052,0 -60.2832,0c2.27686,48.08313 4.53308,95.72949 6.78918,143.37591c-0.64477,0.27246 -1.28967,0.54492 -1.93457,0.81738c-0.97485,-1.54522 -2.41198,-2.96869 -2.85571,-4.6538c-6.99676,-26.56855 -13.85944,-53.17243 -20.76599,-79.76478c-5.18347,-19.958 -10.38562,-39.91113 -15.6059,-59.96826c-18.70495,0 -37.12036,0 -55.67578,0c0,91.65863 0,183.07819 0,274.33771c20.16718,0 40.0528,0 59.98786,0c-0.18293,-4.08331 -0.34662,-7.73798 -0.51367,-12.33404m361.13964,-226.19807c-2.15588,-12.59289 -4.31176,-25.18579 -6.44934,-37.67224c-22.42077,0 -44.48193,0 -66.53344,0c-17.07129,92.30439 -34.07557,184.24622 -51.11976,276.40369c20.41272,0 40.50196,0 60.78125,0c2.07496,-16.65057 4.12513,-33.10144 6.16321,-49.45581c11.45056,0 22.35584,0 33.47547,0c1.0321,16.6651 2.04577,33.03381 3.06408,49.47504c20.7887,0 41.06702,0 61.67432,0c-13.64893,-79.47412 -27.2533,-158.68958 -41.05579,-238.75068m-573.82647,85.38978c0,-28.30353 0,-56.60706 0,-85.36914c14.32629,0 28.4176,0 42.72052,0c0,-12.21277 0,-23.96576 0,-35.68067c-34.78235,0 -69.31452,0 -103.81946,0c0,91.64233 0,182.89642 0,274.27863c20.40942,0 40.59582,0 61.08368,0c0,-38.61658 0,-76.89057 0,-115.63092c14.37933,0 28.46533,0 42.72272,0c0,-12.22211 0,-23.97522 0,-36.03577c-7.40271,0 -14.54859,0.07605 -21.69202,-0.02167c-6.9538,-0.09509 -13.90515,-0.36822 -21.01544,-1.54046m-311.08939,-121.43555c-7.4162,0 -14.83237,0 -22.06607,0c0,92.08972 0,183.42749 0,274.64209c20.41159,0 40.4744,0 60.32355,0c0,-91.70441 0,-183.04462 0,-274.64209c-12.6446,0 -24.95105,0 -38.25748,0m372.58713,159.51892c0,38.39862 0,76.79724 0,115.14703c20.70453,0 40.76526,0 60.69849,0c0,-91.68029 0,-183.0202 0,-274.31695c-20.36371,0 -40.41364,0 -60.69849,0c0,52.95575 0,105.5628 0,159.16992m634.01013,93c0,-84.04053 0,-168.08112 0,-252.2204c-20.57019,0 -40.62256,0 -60.73889,0c0,91.6366 0,182.97437 0,274.41297c20.32983,0 40.38708,0 60.73889,0c0,-7.25861 0,-14.22565 0,-22.19257m-169.59717,82.30933c-45.89783,0 -91.79553,0 -137.65466,0c0,4.53912 0,8.28607 0,12.16925c106.93957,0 213.55798,0 320.39722,0c0,-4.07544 0,-7.97333 0,-12.16925c-60.78479,0 -121.26355,0 -182.74256,0m-198.22717,-152.62879c-0.32605,4.25 2.91711,2.74762 4.81689,2.75196c33.61695,0.07647 67.23389,0.05816 100.85096,0.04565c1.43103,-0.00049 2.86193,-0.14288 4.30053,-0.2196c0,-10.43042 0,-20.49415 0,-30.5625c-36.7091,0 -73.10424,0 -109.96948,0c0,9.1502 0,18.09252 0.0011,27.98449m-628.77286,158.62952c-29.08563,0 -58.17129,0 -87.42734,0c0,4.32452 0,8.06347 0,11.98297c87.51209,0 174.80085,0 261.93702,0c0,-4.1286 0,-7.89435 0,-11.98297c-58.01502,0 -115.76233,0 -174.50968,0m322.07132,2.93823c-1.7489,5.953 -3.49786,11.90601 -5.24676,17.85901c-3.88709,-9.26709 -6.78742,-18.40601 -9.17768,-27.67645c-1.19201,-4.62335 -3.50335,-5.43439 -7.61181,-3.86395c0,15.5979 0,31.04424 0,46.77148c1.5885,0 2.99957,0 5.08361,0c0,-10.44293 0,-20.69983 0,-30.95673c1.57746,1.39691 2.11737,2.88605 2.57618,4.39972c1.93206,6.37403 3.75695,12.7826 5.83331,19.10883c0.37408,1.13977 1.74707,1.95172 2.65887,2.91498c0.89264,-0.98413 2.22492,-1.82355 2.6045,-2.97663c2.02911,-6.16455 3.82324,-12.40655 5.69238,-18.62372c0.67438,-2.24298 1.33197,-4.49108 1.99713,-6.73681c0.38818,0.09717 0.77643,0.1944 1.16461,0.29162c0,10.79413 0,21.58832 0,32.61353c1.71405,0 3.1286,0 4.6037,0c0,-15.83228 0,-31.41126 0,-46.90839c-4.15143,-1.47223 -6.58289,-0.52435 -7.41193,3.86756c-0.58465,3.09716 -1.65686,6.10235 -2.76611,9.91595m181.69776,9.7522c0,-7.80554 0,-15.61109 0,-23.6756c-1.85737,0 -3.37348,0 -5.24775,0c0,11.67828 0,22.97717 0,34.27606c-1.39941,-1.07092 -2.06836,-2.32391 -2.67212,-3.60766c-4.32299,-9.19098 -8.76696,-18.32886 -12.87921,-27.61347c-1.59875,-3.6098 -3.67657,-4.21832 -6.85717,-2.74573c0,15.69159 0,31.14075 0,46.74347c1.67407,0 3.10864,0 5.09741,0c0,-11.50183 0,-22.77832 0,-34.05481c5.72699,10.01185 10.64898,20.12134 15.21289,30.3899c1.58673,3.57007 3.55011,4.82611 7.34588,3.32586c0,-7.38678 0,-14.7124 0.00007,-23.03802m139.55432,5.16626c0.76159,1.46576 1.52319,2.93146 2.37964,4.57947c-3.29871,3.94085 -3.92432,8.16406 -0.59607,12.33563c-4.62305,6.19647 -4.95105,10.83453 -1.18665,14.50384c6.37891,6.21808 20.22046,3.14368 23.33081,-5.18206c2.48633,-6.65546 -0.6123,-11.68006 -7.7002,-12.32422c-2.31579,-0.21045 -4.6654,-0.02088 -6.98937,-0.17224c-5.23389,-0.34107 -6.15955,-2.2154 -3.43103,-7.1261c5.02868,1.56891 10.20056,1.11303 12.47753,-3.94782c1.88257,-4.18408 1.77234,-9.26471 2.61451,-14.36853c1.88183,0.08313 4.4978,-0.47918 2.78515,-4.7102c-4.60412,-0.4112 -9.31286,-1.59119 -13.77282,-0.97394c-3.18873,0.44122 -7.26832,2.61273 -8.73047,5.24524c-1.73426,3.12231 -1.08667,7.56762 -1.18103,12.14093m-384.04065,7.15796c1.63403,-4.06983 3.26812,-8.13965 4.90216,-12.20948c0.625,0.11725 1.24994,0.2345 1.87488,0.35175c3.02404,6.40497 6.26544,12.7193 8.98748,19.25006c1.54187,3.69965 3.69281,4.75098 7.64441,3.36969c-3.86169,-8.14068 -7.47571,-16.34265 -11.63458,-24.25824c-1.83124,-3.48553 -1.55627,-5.95782 0.73798,-8.97381c3.23053,-4.24677 6.0274,-8.82343 9.00964,-13.25904c-0.51965,-0.4259 -1.03931,-0.85181 -1.55896,-1.27771c-10.54407,3.37531 -11.57544,15.97101 -19.96045,22.43317c0,-7.4173 0,-14.30982 0,-21.45252c-1.99884,0 -3.53021,0 -5.09521,0c0,15.922 0,31.46631 0,47.07904c1.77215,0 3.20587,0 5.09259,0c0,-3.53918 0,-6.83764 0.00006,-11.05291m-34.21302,-7.83759c-1.1524,0.56226 -2.30487,1.12457 -3.45727,1.68683c1.34979,1.43268 2.69964,2.8653 4.44134,4.71387c-0.30053,3.56945 -0.67144,7.97442 -1.06671,12.66803c1.38056,-0.09113 2.83686,-0.01429 2.87628,-0.21527c0.90546,-4.61597 1.65662,-9.26215 2.45533,-14.01477c2.21649,0 4.29644,0 6.81598,0c-0.40186,4.85479 -0.77778,9.39538 -1.15369,13.93597c0.57751,0.16034 1.15503,0.32074 1.7326,0.48108c4.40259,-3.59876 1.19666,-9.93774 3.75495,-14.36981c2.00458,-0.80866 6.44739,0.6535 4.487,-4.56079c-1.3689,-0.21906 -2.81391,-0.45026 -4.50031,-0.72016c0.34247,-3.23327 0.67145,-6.34009 1.00037,-9.44574c1.79541,-0.2503 3.23114,-0.4505 4.44147,-0.6192c2.64843,-5.04498 -2.4242,-3.78723 -3.87317,-5.05963c0.3338,-4.26654 0.64123,-8.19666 0.94867,-12.12671c-0.55896,-0.16876 -1.11786,-0.33752 -1.67676,-0.50629c-4.15546,3.16474 -1.19409,9.09784 -3.69916,13.07599c-2.02515,0 -4.12952,0 -6.54437,0c0.34924,-4.33111 0.67859,-8.41546 1.00787,-12.49981c-0.54578,-0.17109 -1.09155,-0.34223 -1.63733,-0.51337c-4.05218,3.15991 -1.58258,8.84704 -2.85077,11.47375c-2.61712,1.80274 -4.15606,2.8628 -5.69494,3.92286c1.33368,1.22198 2.66729,2.44397 4.87475,4.46661c-0.41735,1.89416 -1.10858,5.03113 -2.68213,8.22656m352.89197,-11.46405c4.3263,1.00153 4.4231,4.58252 4.49402,7.87415c0.1604,7.44482 0.05042,14.89551 0.05042,22.48278c1.98815,0 3.42993,0 4.92529,0c0,-9.17529 0.55041,-18.1748 -0.15881,-27.07397c-0.67334,-8.44995 -7.25721,-11.18536 -14.2826,-6.72357c-0.86999,0.55267 -1.82727,0.96838 -3.36328,1.77124c0,-6.79236 0,-12.88049 0,-19.3949c-1.98523,0.13684 -3.51709,0.24243 -4.94031,0.34058c0,17.35101 0,34.10528 0,51.26904c1.78333,-0.07941 3.30848,-0.14728 5.01599,-0.22327c0,-7.28247 0.20557,-14.10302 -0.06457,-20.90472c-0.21924,-5.51715 2.45337,-8.29236 8.32385,-9.41736m-63.60675,25.0246c2.78119,4.43573 6.62549,7.11755 12.01111,6.30139c5.49206,-0.83227 9.38947,-4.47913 10.21271,-9.63861c0.9129,-5.72076 1.05987,-11.86969 -0.04114,-17.52423c-1.22205,-6.27637 -6.38208,-9.65045 -11.73425,-9.67072c-5.26526,-0.02002 -9.98444,3.55945 -12.00128,9.58637c-2.29828,6.86749 -2.17524,13.71283 1.55285,20.9458m105.19928,-22.94275c5.81079,-3.69952 9.14185,-2.26898 9.82215,4.33777c0.25512,2.47723 0.17285,4.99261 0.18334,7.49078c0.02308,5.4613 0.00708,10.92279 0.00708,16.41974c1.97705,0 3.42591,0 5.13453,0c0,-7.90094 0.08386,-15.55817 -0.03162,-23.2124c-0.06848,-4.54828 -0.3501,-9.29199 -5.02197,-11.75141c-4.81482,-2.53466 -8.59754,0.13361 -12.14734,3.16156c-0.1958,0.167 -0.6178,0.06867 0.45825,-0.01709c-2.4353,-1.62316 -3.9541,-2.63537 -6.28931,-4.19171c0,12.90534 0,24.3349 0,35.91858c1.75354,0 3.28553,0 5.03333,0c0,-7.49438 -0.15491,-14.65747 0.1018,-21.80578c0.06983,-1.94226 1.38135,-3.83991 2.74976,-6.35004m-219.10351,14.8866c0,4.44677 0,8.89355 0,13.38336c2.04376,0 3.50183,0 5.25274,0c0,-7.70221 -0.05645,-15.18317 0.02393,-22.66266c0.03979,-3.711 3.61389,-7.52167 7.1272,-7.6463c4.66577,-0.16541 5.15441,3.32287 5.5653,6.73437c0.15863,1.31696 0.13806,2.65961 0.14069,3.9906c0.01282,6.46058 0.0058,12.92109 0.0058,19.59266c1.87866,0 3.31189,0 5.12317,0c0,-8.14551 0.11688,-16.10596 -0.04633,-24.06061c-0.08996,-4.38599 -0.65271,-8.89423 -5.26581,-11.07666c-4.65588,-2.20264 -8.31207,0.22754 -11.70752,3.19415c-0.21759,0.19012 -0.617,0.17218 0.39276,-0.08075c-2.47186,-1.43347 -4.10864,-2.38263 -6.61193,-3.83435c0,8.18506 0,14.82739 0,22.46619m-9.27332,-12.39337c-2.25708,-10.12891 -9.14355,-12.98774 -18.12274,-7.70411c-3.07575,1.80982 -3.49103,3.53711 -2.08173,4.86951c4.93085,-0.49133 8.80176,-1.59503 12.31232,-0.8941c1.52856,0.30529 2.3175,4.31475 3.57788,6.92236c-3.45563,0.81421 -5.77338,1.15277 -7.93445,1.92798c-2.16083,0.77514 -4.3728,1.70709 -6.1969,3.06238c-4.60449,3.42059 -5.50531,10.56176 -2.17859,15.2301c2.95978,4.15344 7.82789,4.56036 13.24298,1.09594c0.80793,-0.5169 1.58753,-1.07812 1.35578,-0.92004c2.34198,1.13867 3.95569,1.92328 6.16815,2.99902c0,-9.46282 0,-17.58673 -0.1427,-26.58904m-47.828,-3.66742c-3.65912,6.6881 -3.94409,13.72967 -1.59308,20.78509c2.92316,8.7727 11.38519,12.08691 19.17969,8.04376c3.12378,-1.62036 3.27746,-3.20074 0.82788,-4.61035c-4.05982,0.33759 -8.31183,0.90057 -11.63574,-0.5968c-3.48572,-1.57031 -4.64399,-5.6452 -4.11799,-10.18726c6.40577,0 12.48157,0 18.48365,0c1.23468,-9.76184 -1.39185,-16.69494 -7.00037,-19.07342c-4.91687,-2.08515 -9.13446,-0.55127 -14.14404,5.63898m96.15454,13.95971c0.88153,0.46753 1.77136,0.92023 2.64319,1.40527c3.026,1.68378 4.51764,4.18335 2.89575,7.45185c-1.65906,3.34332 -4.76154,3.31201 -7.78919,2.14319c-1.82659,-0.7052 -3.47479,-1.87262 -5.53283,-3.01544c-0.74921,1.13049 -1.52484,2.30084 -2.55188,3.85058c2.08056,1.33466 3.75397,2.71552 5.66205,3.57581c6.15942,2.77673 12.54412,0.71887 14.96765,-4.63776c2.63678,-5.82837 0.49682,-11.229 -5.73944,-14.48309c-2.06244,-1.07617 -4.28028,-1.93549 -6.15198,-3.27753c-2.85651,-2.04797 -3.31183,-5.39001 -0.45941,-7.00195c2.01007,-1.13581 5.38739,0.0968 8.14367,0.37628c0.54566,0.0553 1.04297,0.58673 1.85877,1.07641c0.87408,-1.5448 1.55896,-2.75518 2.46228,-4.35162c-2.27417,-1.16821 -4.08319,-2.41504 -6.08588,-3.06372c-5.03839,-1.63184 -10.20758,0.62866 -12.21368,5.07373c-2.18567,4.84302 -0.83289,9.55493 3.71515,12.66467c1.09167,0.7464 2.33044,1.27777 4.17578,2.21332m101.73041,-18.41907c0.93152,1.84308 1.86309,3.6861 2.79461,5.52918c0.49366,-0.17316 0.98743,-0.34631 1.48108,-0.51941c0,7.14191 -0.3042,14.30072 0.09156,21.42065c0.3485,6.27259 3.85839,9.11774 9.27319,8.5373c3.6709,-0.3935 5.17639,-1.91834 3.04406,-5.49018c-5.90979,0.64997 -7.21032,-0.38848 -7.29626,-6.18945c-0.09314,-6.28986 -0.02099,-12.58221 -0.02099,-19.00177c2.71801,-0.22449 5.13244,-0.42395 7.85253,-0.64856c-0.15271,-1.77466 -0.2716,-3.15753 -0.39196,-4.55585c-2.66993,-0.16259 -4.91895,-0.29956 -7.4585,-0.45422c0,-3.27734 0,-6.22192 0,-9.56854c-1.70874,0.1286 -3.06995,0.23108 -3.66809,0.27612c-2.78626,3.3996 1.97656,9.53705 -5.70123,10.66473m60.20257,-0.63275c-1.53796,-0.13824 -3.0758,-0.27649 -4.77063,-0.42889c0,11.95868 0,23.32373 0,34.87079c1.74781,0 3.27796,0 5.00073,0c0,-11.40631 0,-22.49549 -0.2301,-34.4419m-140.38434,18.90039c2.43744,0 4.87488,0 7.48688,0c0,-1.72021 0,-3.05298 0,-4.34704c-12.44427,-1.28034 -13.47009,-0.95478 -12.78473,4.15759c1.41272,0.06189 2.86878,0.12567 5.29785,0.18945m141.27899,-28.54895c-0.83459,-1.86456 -1.66918,-3.72912 -2.50378,-5.59369c-1.25525,0.59583 -3.34143,0.96406 -3.58081,1.83802c-0.41113,1.50171 -0.22803,4.09106 0.74097,4.79107c1.01111,0.73066 3.24487,-0.23077 5.34362,-1.0354z" id="svg_1"/>
  <path fill="#FEFEFE" d="m232.25935,248.76456c5.49944,2.06714 10.71799,3.80516 15.73191,6.00882c3.17299,1.39453 5.3045,0.98245 7.91494,-1.39217c16.87914,-15.35422 33.92721,-30.52277 50.93117,-45.73956c1.17899,-1.0551 2.44937,-2.00803 4.34516,-3.55266c0.7225,17.77595 1.40206,34.68129 2.0982,51.58594c1.72559,41.90378 3.42392,83.80877 5.25086,125.70813c0.15679,3.59552 -0.71891,6.16214 -3.36911,8.75918c-22.84974,22.39157 -45.50608,44.98044 -68.33626,67.39218c-2.74718,2.69687 -3.75582,4.97144 -2.73494,9.03125c23.2698,92.53779 46.51346,185.0832 69.21216,277.76184c2.23626,9.13062 1.71237,19.1872 1.0542,28.71625c-0.91468,13.24207 -2.36231,26.56409 -5.13523,39.51941c-1.8053,8.43439 -6.1206,16.39404 -9.79617,24.34229c-2.22073,4.80218 -1.90161,6.64142 3.53415,7.54858c9.89035,1.65051 19.22165,-0.97156 28.08664,-5.01965c24.3407,-11.11475 37.9978,-37.70569 33.55807,-66.44074c-4.21719,-27.29455 -13.18851,-53.23889 -23.73059,-78.70776c-12.42227,-30.01129 -21.88382,-60.8219 -21.97262,-93.7218c-0.05002,-18.52759 5.06713,-35.80579 13.88864,-52.04676c5.09543,-9.38098 12.42242,-15.92382 22.90802,-18.66339c5.13739,-1.34222 10.17419,-3.2951 15.39038,-4.06573c13.14737,-1.94226 24.17575,6.84051 24.76337,19.22156c0.64358,13.56042 -9.1778,24.6947 -22.25098,23.96557c-9.03055,-0.50366 -13.66544,3.3747 -17.15482,11.15283c-7.06314,15.74433 -7.27102,31.4607 -2.09503,47.69837c12.50101,39.21679 26.61585,77.82294 43.4437,115.3963c9.93029,22.17236 12.66909,45.34326 10.82916,69.30749c-1.02759,13.38398 -3.08539,26.50452 -9.7345,38.42359c-11.9613,21.44134 -31.22208,33.18481 -54.4302,37.73181c-12.54261,2.45734 -25.78861,1.59436 -38.72202,1.71332c-13.65359,0.12567 -27.31262,-0.38037 -40.9697,-0.57904c-38.80278,-0.56439 -77.60661,-1.06879 -116.4066,-1.78376c-2.18927,-0.04028 -4.84074,-1.24267 -6.44616,-2.77484c-23.37685,-22.31103 -46.6671,-44.71411 -69.78412,-67.29364c-2.0196,-1.97265 -3.50341,-5.24139 -3.83383,-8.07177c-1.83399,-15.70923 -3.33077,-31.46082 -4.69954,-47.219c-0.26648,-3.06787 0.18678,-6.31402 0.90703,-9.33514c22.66821,-95.08435 45.38854,-190.15637 68.22442,-285.20053c0.89311,-3.7172 0.19554,-6.05866 -2.48781,-8.74677c-23.30729,-23.34881 -46.48932,-46.82321 -69.58685,-70.37961c-1.42666,-1.45501 -2.68358,-3.96539 -2.57711,-5.90561c3.21021,-58.4978 6.602,-116.98562 9.9669,-175.47496c0.0467,-0.81181 0.1137,-1.62245 0.24313,-3.44751c1.71221,1.34415 2.94409,2.22617 4.08137,3.21679c17.08342,14.88038 34.21548,29.70617 51.16411,44.73873c2.62332,2.32674 4.76984,2.64087 7.93791,1.51067c18.3174,-6.53465 36.67342,-12.96539 55.09746,-19.1913c2.27123,-0.76748 5.27063,-0.79573 7.51434,0.0052c12.67373,4.52404 25.21976,9.40575 38.17679,14.2976z" id="svg_2"/>
  <path fill="#FEFEFE" d="m539.52319,621.07764c0,-3.13416 0,-5.7804 0,-8.75922c18.69599,0 37.09131,0 55.97327,0c3.51245,13.48291 7.07806,27.13605 10.62537,40.79382c8.5813,33.03894 17.15832,66.07904 25.721,99.12281c0.58222,2.24664 0.74421,4.88891 4.78931,3.26642c-2.25427,-47.56238 -4.51263,-95.21113 -6.78686,-143.19434c20.1441,0 40.04748,0 60.19366,0c0,91.42047 0,182.81415 0,274.44342c-17.69269,0 -35.30377,0 -53.40173,0c-13.67463,-51.03723 -27.38709,-102.21539 -41.09955,-153.39362c-0.77118,0.13245 -1.54242,0.2649 -2.3136,0.39728c2.18079,50.86688 4.36157,101.73371 6.55603,152.91998c-19.98865,0 -39.74915,0 -60.2569,0c0,-88.3067 0,-176.70764 0,-265.59655z" id="svg_3"/>
  <path fill="#FEFEFE" d="m995.27795,874.69562c0.16535,4.12536 0.32904,7.78003 0.51197,11.86334c-19.93506,0 -39.82068,0 -59.98786,0c0,-91.25952 0,-182.67908 0,-274.33771c18.55542,0 36.97083,0 55.67578,0c5.22028,20.05713 10.42243,40.01026 15.6059,59.96826c6.90655,26.59235 13.76923,53.19623 20.76599,79.76478c0.44373,1.68511 1.88086,3.10858 2.85571,4.6538c0.6449,-0.27246 1.2898,-0.54492 1.93457,-0.81738c-2.2561,-47.64642 -4.51232,-95.29278 -6.78918,-143.37591c20.12268,0 40.12842,0 60.2832,0c0,91.35321 0,182.64862 0,274.25769c-17.71887,0 -35.46057,0 -53.52685,0c-13.68396,-51.09522 -27.37659,-102.22272 -41.06928,-153.35016c-0.77466,0.11316 -1.54925,0.22638 -2.32391,0.3396c2.02075,46.85431 4.0415,93.70867 6.06396,141.03369z" id="svg_4"/>
  <path fill="#FDFDFD" d="m1356.201536,648.44971c13.70349,79.63824 27.30786,158.8537 40.95679,238.32782c-20.6073,0 -40.88562,0 -61.67432,0c-1.01831,-16.44123 -2.03198,-32.80994 -3.06408,-49.47504c-11.11963,0 -22.02491,0 -33.47547,0c-2.03808,16.35437 -4.08825,32.80524 -6.16321,49.45581c-20.27929,0 -40.36853,0 -60.78125,0c17.04419,-92.15747 34.04847,-184.0993 51.11976,-276.40369c22.05151,0 44.11267,0 66.53344,0c2.13758,12.48645 4.29346,25.07935 6.54834,38.0951m-43.49695,8.27093c-3.19189,47.9422 -6.38366,95.8844 -9.58557,143.97858c8.03687,0 16.60962,0 25.05835,0c-3.62634,-48.68927 -7.23132,-97.09119 -10.87829,-146.05542c-1.79187,0.47931 -3.12989,0.83722 -4.59449,2.07684z" id="svg_5"/>
  <path fill="#FCFCFC" d="m782.66833,733.90527c7.03138,0.6836 13.98273,0.95673 20.93653,1.05182c7.14343,0.09772 14.28931,0.02167 21.69202,0.02167c0,12.06055 0,23.81366 0,36.03577c-14.25739,0 -28.34339,0 -42.72272,0c0,38.74035 0,77.01434 0,115.63092c-20.48786,0 -40.67426,0 -61.08368,0c0,-91.38221 0,-182.6363 0,-274.27863c34.50494,0 69.03711,0 103.81946,0c0,11.71491 0,23.4679 0,35.68067c-14.30292,0 -28.39423,0 -42.72052,0c0,28.76208 0,57.06561 0.07891,85.85778z" id="svg_6"/>
  <path fill="#FDFDFD" d="m472,611.98108c12.80646,0 25.11291,0 37.75751,0c0,91.59747 0,182.93768 0,274.64209c-19.84915,0 -39.91196,0 -60.32355,0c0,-91.2146 0,-182.55237 0,-274.64209c7.2337,0 14.64987,0 22.56604,0z" id="svg_7"/>
  <path fill="#FDFDFD" d="m844.08716,771c0,-53.10712 0,-105.71417 0,-158.66992c20.28485,0 40.33478,0 60.69849,0c0,91.29675 0,182.63666 0,274.31695c-19.93323,0 -39.99396,0 -60.69849,0c0,-38.34979 0,-76.74841 0,-115.64703z" id="svg_8"/>
  <path fill="#FDFDFD" d="m1478.09729,864.99994c0,7.46698 0,14.43402 0,21.69263c-20.35181,0 -40.40906,0 -60.73889,0c0,-91.4386 0,-182.77637 0,-274.41297c20.11633,0 40.1687,0 60.73889,0c0,84.13928 0,168.17987 0,252.72034z" id="svg_9"/>
  <path fill="#FEFEFE" d="m1309.00024,946.80933c60.97889,0 121.45765,0 182.24244,0c0,4.19592 0,8.09381 0,12.16925c-106.83924,0 -213.45765,0 -320.39722,0c0,-3.88318 0,-7.63013 0,-12.16925c45.85913,0 91.75683,0 138.15478,0z" id="svg_10"/>
  <path fill="#FDFDFD" d="m1110.27246,793.70575c-0.00061,-9.41718 -0.00061,-18.3595 -0.00061,-27.5097c36.86524,0 73.26038,0 109.96948,0c0,10.06835 0,20.13208 0,30.5625c-1.4386,0.07672 -2.8695,0.21911 -4.30053,0.2196c-33.61707,0.01251 -67.23401,0.03082 -100.85096,-0.04565c-1.89978,-0.00434 -5.14294,1.49804 -4.81738,-3.22675z" id="svg_11"/>
  <path fill="#FEFEFE" d="m482.00012,952.81006c58.24732,0 115.99463,0 174.00965,0c0,4.08862 0,7.85437 0,11.98297c-87.13617,0 -174.42493,0 -261.93702,0c0,-3.9195 0,-7.65845 0,-11.98297c29.25605,0 58.34171,0 87.92737,0z" id="svg_12"/>
  <path fill="#E1E1E1" d="m803.69879,955.36462c0.98187,-3.42993 2.05408,-6.43512 2.63873,-9.53228c0.82904,-4.39191 3.2605,-5.33979 7.41193,-3.86756c0,15.49713 0,31.07611 0,46.90839c-1.4751,0 -2.88965,0 -4.6037,0c0,-11.02521 0,-21.8194 0,-32.61353c-0.38818,-0.09722 -0.77643,-0.19445 -1.16461,-0.29162c-0.66516,2.24573 -1.32275,4.49383 -1.99713,6.73681c-1.86914,6.21717 -3.66327,12.45917 -5.69238,18.62372c-0.37958,1.15308 -1.71186,1.9925 -2.6045,2.97663c-0.9118,-0.96326 -2.28479,-1.77521 -2.65887,-2.91498c-2.07636,-6.32623 -3.90125,-12.7348 -5.83331,-19.10883c-0.45881,-1.51367 -0.99872,-3.00281 -2.57618,-4.39972c0,10.2569 0,20.5138 0,30.95673c-2.08404,0 -3.49511,0 -5.08361,0c0,-15.72724 0,-31.17358 0,-46.77148c4.10846,-1.57044 6.4198,-0.7594 7.61181,3.86395c2.39026,9.27044 5.29059,18.40936 9.17768,27.67645c1.7489,-5.953 3.49786,-11.90601 5.37414,-18.24268z" id="svg_13"/>
  <path fill="#E6E6E6" d="m985.26917,966.00049c-0.00007,7.82562 -0.00007,15.15124 -0.00007,22.53802c-3.79577,1.50025 -5.75915,0.24421 -7.34588,-3.32586c-4.56391,-10.26856 -9.4859,-20.37805 -15.21289,-30.3899c0,11.27649 0,22.55298 0,34.05481c-1.98877,0 -3.42334,0 -5.09741,0c0,-15.60272 0,-31.05188 0,-46.74347c3.1806,-1.47259 5.25842,-0.86407 6.85717,2.74573c4.11225,9.28461 8.55622,18.42249 12.87921,27.61347c0.60376,1.28375 1.27271,2.53674 2.67212,3.60766c0,-11.29889 0,-22.59778 0,-34.27606c1.87427,0 3.39038,0 5.24775,0c0,8.06451 0,15.87006 0,24.1756z" id="svg_14"/>
  <path fill="#ECECEC" d="m1124.67835,970.31604c0.2395,-4.2226 -0.40809,-8.66791 1.32617,-11.79022c1.46215,-2.63251 5.54174,-4.80402 8.73047,-5.24524c4.45996,-0.61725 9.1687,0.56274 13.77282,0.97394c1.71265,4.23102 -0.90332,4.79333 -2.78515,4.7102c-0.84217,5.10382 -0.73194,10.18445 -2.61451,14.36853c-2.27697,5.06085 -7.44885,5.51673 -12.47753,3.94782c-2.72852,4.9107 -1.80286,6.78503 3.43103,7.1261c2.32397,0.15136 4.67358,-0.03821 6.98937,0.17224c7.0879,0.64416 10.18653,5.66876 7.7002,12.32422c-3.11035,8.32574 -16.9519,11.40014 -23.33081,5.18206c-3.7644,-3.66931 -3.4364,-8.30737 1.18665,-14.50384c-3.32825,-4.17157 -2.70264,-8.39478 0.59607,-12.33563c-0.85645,-1.64801 -1.61805,-3.11371 -2.52478,-4.93018m19.51135,22.29059c-2.70728,-4.89386 -7.4375,-1.96631 -11.16651,-2.91229c-2.8291,-0.71784 -4.94348,0.36279 -5.07531,3.04437c-0.10621,2.16095 0.51867,5.19934 1.99963,6.44421c5.11951,4.30365 12.93494,0.97425 14.24219,-6.57629m-3.9386,-30.20221c-2.58264,-5.05756 -6.66309,-6.37781 -9.42481,-2.83746c-2.69604,3.45617 -2.82751,7.57849 -0.49487,11.11761c1.01428,1.5387 3.98096,3.06128 5.60938,2.677c4.25976,-1.00506 4.78198,-4.9162 4.76843,-8.72571c-0.00183,-0.48693 -0.17163,-0.97314 -0.45813,-2.23144z" id="svg_15"/>
  <path fill="#E1E1E1" d="m740.78284,978.28314c-0.00006,3.75684 -0.00006,7.0553 -0.00006,10.59448c-1.88672,0 -3.32044,0 -5.09259,0c0,-15.61273 0,-31.15704 0,-47.07904c1.565,0 3.09637,0 5.09521,0c0,7.1427 0,14.03522 0,21.45252c8.38501,-6.46216 9.41638,-19.05786 19.96045,-22.43317c0.51965,0.4259 1.03931,0.85181 1.55896,1.27771c-2.98224,4.43561 -5.77911,9.01227 -9.00964,13.25904c-2.29425,3.01599 -2.56922,5.48828 -0.73798,8.97381c4.15887,7.91559 7.77289,16.11756 11.63458,24.25824c-3.9516,1.38129 -6.10254,0.32996 -7.64441,-3.36969c-2.72204,-6.53076 -5.96344,-12.84509 -8.98748,-19.25006c-0.62494,-0.11725 -1.24988,-0.2345 -1.87488,-0.35175c-1.63404,4.06983 -3.26813,8.13965 -4.90216,12.66791z" id="svg_16"/>
  <path fill="#E1E1E1" d="m707.01099,969.95789c1.13238,-3.1662 1.82361,-6.30317 2.24096,-8.19733c-2.20746,-2.02264 -3.54107,-3.24463 -4.87475,-4.46661c1.53888,-1.06006 3.07782,-2.12012 5.69494,-3.92286c1.26819,-2.62671 -1.20141,-8.31384 2.85077,-11.47375c0.54578,0.17114 1.09155,0.34228 1.63733,0.51337c-0.32928,4.08435 -0.65863,8.1687 -1.00787,12.49981c2.41485,0 4.51922,0 6.54437,0c2.50507,-3.97815 -0.4563,-9.91125 3.69916,-13.07599c0.5589,0.16877 1.1178,0.33753 1.67676,0.50629c-0.30744,3.93005 -0.61487,7.86017 -0.94867,12.12671c1.44897,1.2724 6.5216,0.01465 3.87317,5.05963c-1.21033,0.1687 -2.64606,0.3689 -4.44147,0.6192c-0.32892,3.10565 -0.6579,6.21247 -1.00037,9.44574c1.6864,0.2699 3.13141,0.5011 4.50031,0.72016c1.96039,5.21429 -2.48242,3.75213 -4.487,4.56079c-2.55829,4.43207 0.64764,10.77105 -3.75495,14.36981c-0.57757,-0.16034 -1.15509,-0.32074 -1.7326,-0.48108c0.37591,-4.54059 0.75183,-9.08118 1.15369,-13.93597c-2.51954,0 -4.59949,0 -6.81598,0c-0.79871,4.75262 -1.54987,9.3988 -2.45533,14.01477c-0.03942,0.20098 -1.49572,0.12414 -2.87628,0.21527c0.39527,-4.69361 0.76618,-9.09858 1.06671,-12.66803c-1.7417,-1.84857 -3.09155,-3.28119 -4.44134,-4.71387c1.1524,-0.56226 2.30487,-1.12457 3.89844,-1.71606m12.69879,-3.91071c0.13379,-1.93256 0.26758,-3.86517 0.41131,-5.94147c-2.60601,0 -4.82757,0 -7.27832,0c-0.28869,3.36896 -0.55053,6.42536 -0.87359,10.19513c2.9732,-1.3667 7.1004,2.43195 7.7406,-4.25366z" id="svg_17"/>
  <path fill="#ECECEC" d="m1059.0354,958.51404c-5.44409,1.13403 -8.1167,3.90924 -7.89746,9.42639c0.27014,6.8017 0.06457,13.62225 0.06457,20.90472c-1.70751,0.07599 -3.23266,0.14386 -5.01599,0.22327c0,-17.16376 0,-33.91803 0,-51.26904c1.42322,-0.09815 2.95508,-0.20374 4.94031,-0.34058c0,6.51441 0,12.60254 0,19.3949c1.53601,-0.80286 2.49329,-1.21857 3.36328,-1.77124c7.02539,-4.46179 13.60926,-1.72638 14.2826,6.72357c0.70922,8.89917 0.15881,17.89868 0.15881,27.07397c-1.49536,0 -2.93714,0 -4.92529,0c0,-7.58727 0.10998,-15.03796 -0.05042,-22.48278c-0.07092,-3.29163 -0.16772,-6.87262 -4.92041,-7.88318z" id="svg_18"/>
  <path fill="#EAEAEA" d="m995.66016,983.23236c-3.53321,-6.91766 -3.65625,-13.763 -1.35797,-20.63049c2.01684,-6.02692 6.73602,-9.60639 12.00128,-9.58637c5.35217,0.02027 10.5122,3.39435 11.73425,9.67072c1.10101,5.65454 0.95404,11.80347 0.04114,17.52423c-0.82324,5.15948 -4.72065,8.80634 -10.21271,9.63861c-5.38562,0.81616 -9.22992,-1.86566 -12.20599,-6.6167m18.57763,-13.50275c-0.45434,-2.09814 -0.3255,-4.64013 -1.50329,-6.18762c-1.6568,-2.17706 -4.29694,-5.00482 -6.49091,-4.98297c-2.22412,0.02216 -5.33014,2.7323 -6.44086,5.03967c-2.62152,5.44611 -2.55499,11.4599 0.49012,16.78064c1.13727,1.98694 4.02697,4.12574 6.09271,4.10126c2.06055,-0.02441 4.93109,-2.25446 5.93085,-4.26953c1.40704,-2.83557 1.41644,-6.36456 1.92138,-10.48145z" id="svg_19"/>
  <path fill="#ECECEC" d="m1100.74097,960.90088c-1.05506,2.21417 -2.36658,4.11182 -2.43641,6.05408c-0.25671,7.14831 -0.1018,14.3114 -0.1018,21.80578c-1.7478,0 -3.27979,0 -5.03333,0c0,-11.58368 0,-23.01324 0,-35.91858c2.33521,1.55634 3.85401,2.56855 6.28931,4.19171c-1.07605,0.08576 -0.65405,0.18409 -0.45825,0.01709c3.5498,-3.02795 7.33252,-5.69622 12.14734,-3.16156c4.67187,2.45942 4.95349,7.20313 5.02197,11.75141c0.11548,7.65423 0.03162,15.31146 0.03162,23.2124c-1.70862,0 -3.15748,0 -5.13453,0c0,-5.49695 0.016,-10.95844 -0.00708,-16.41974c-0.01049,-2.49817 0.07178,-5.01355 -0.18334,-7.49078c-0.6803,-6.60675 -4.01136,-8.03729 -10.1355,-4.04181z" id="svg_20"/>
  <path fill="#ECECEC" d="m881.95081,974.99329c0,-7.14057 0,-13.7829 0,-21.96796c2.50329,1.45172 4.14007,2.40088 6.61193,3.83435c-1.00976,0.25293 -0.61035,0.27087 -0.39276,0.08075c3.39545,-2.96661 7.05164,-5.39679 11.70752,-3.19415c4.6131,2.18243 5.17585,6.69067 5.26581,11.07666c0.16321,7.95465 0.04633,15.9151 0.04633,24.06061c-1.81128,0 -3.24451,0 -5.12317,0c0,-6.67157 0.00702,-13.13208 -0.0058,-19.59266c-0.00263,-1.33099 0.01794,-2.67364 -0.14069,-3.9906c-0.41089,-3.4115 -0.89953,-6.89978 -5.5653,-6.73437c-3.51331,0.12463 -7.08741,3.9353 -7.1272,7.6463c-0.08038,7.47949 -0.02393,14.96045 -0.02393,22.66266c-1.75091,0 -3.20898,0 -5.25274,0c0,-4.48981 0,-8.93659 0,-13.88159z" id="svg_21"/>
  <path fill="#EBEBEB" d="m872.74884,963.53735c0.07135,8.56311 0.07135,16.68702 0.07135,26.14984c-2.21246,-1.07574 -3.82617,-1.86035 -6.16815,-2.99902c0.23175,-0.15808 -0.54785,0.40314 -1.35578,0.92004c-5.41509,3.46442 -10.2832,3.0575 -13.24298,-1.09594c-3.32672,-4.66834 -2.4259,-11.80951 2.17859,-15.2301c1.8241,-1.35529 4.03607,-2.28724 6.1969,-3.06238c2.16107,-0.77521 4.47882,-1.11377 7.93445,-1.92798c-1.26038,-2.60761 -2.04932,-6.61707 -3.57788,-6.92236c-3.51056,-0.70093 -7.38147,0.40277 -12.31232,0.8941c-1.4093,-1.3324 -0.99402,-3.05969 2.08173,-4.86951c8.97919,-5.28363 15.86566,-2.4248 18.19409,8.14331m-14.91406,10.7287c-3.05939,2.94214 -3.85083,6.25336 -0.77826,9.5022c2.25567,2.38519 7.91589,1.15814 9.70611,-2.6424c1.33667,-2.8377 0.98584,-6.47021 1.52912,-10.91571c-4.07617,1.51538 -6.94379,2.58149 -10.45697,4.05591z" id="svg_22"/>
  <path fill="#EEEEEE" d="m825.03992,959.11395c4.81915,-5.87347 9.03674,-7.40735 13.95361,-5.3222c5.60852,2.37848 8.23505,9.31158 7.00037,19.07342c-6.00208,0 -12.07788,0 -18.48365,0c-0.526,4.54206 0.63227,8.61695 4.11799,10.18726c3.32391,1.49737 7.57592,0.93439 11.63574,0.5968c2.44958,1.40961 2.2959,2.98999 -0.82788,4.61035c-7.7945,4.04315 -16.25653,0.72894 -19.17969,-8.04376c-2.35101,-7.05542 -2.06604,-14.09699 1.78351,-21.10187m16.77704,8.26691c-0.23218,-1.46668 -0.02356,-3.24664 -0.79413,-4.33051c-1.33905,-1.8836 -3.10565,-4.35211 -5.02295,-4.68713c-1.94104,-0.33923 -4.82337,1.10681 -6.30103,2.69446c-1.5863,1.7044 -2.01733,4.48407 -3.32867,7.72381c5.86444,-0.26458 10.45117,-0.47149 15.44678,-1.40063z" id="svg_23"/>
  <path fill="#EAEAEA" d="m920.66693,973.23779c-1.50824,-0.7829 -2.74701,-1.31427 -3.83868,-2.06067c-4.54804,-3.10974 -5.90082,-7.82165 -3.71515,-12.66467c2.0061,-4.44507 7.17529,-6.70557 12.21368,-5.07373c2.00269,0.64868 3.81171,1.89551 6.08588,3.06372c-0.90332,1.59644 -1.5882,2.80682 -2.46228,4.35162c-0.8158,-0.48968 -1.31311,-1.02111 -1.85877,-1.07641c-2.75628,-0.27948 -6.1336,-1.51209 -8.14367,-0.37628c-2.85242,1.61194 -2.3971,4.95398 0.45941,7.00195c1.8717,1.34204 4.08954,2.20136 6.15198,3.27753c6.23626,3.25409 8.37622,8.65472 5.73944,14.48309c-2.42353,5.35663 -8.80823,7.41449 -14.96765,4.63776c-1.90808,-0.86029 -3.58149,-2.24115 -5.66205,-3.57581c1.02704,-1.54974 1.80267,-2.72009 2.55188,-3.85058c2.05804,1.14282 3.70624,2.31024 5.53283,3.01544c3.02765,1.16882 6.13013,1.20013 7.78919,-2.14319c1.62189,-3.2685 0.13025,-5.76807 -2.89575,-7.45185c-0.87183,-0.48504 -1.76166,-0.93774 -2.98029,-1.55792z" id="svg_24"/>
  <path fill="#EBEBEB" d="m1022.96826,954.63403c7.44397,-0.79034 2.68115,-6.92779 5.46741,-10.32739c0.59814,-0.04504 1.95935,-0.14752 3.66809,-0.27612c0,3.34662 0,6.2912 0,9.56854c2.53955,0.15466 4.78857,0.29163 7.4585,0.45422c0.12036,1.39832 0.23925,2.78119 0.39196,4.55585c-2.72009,0.22461 -5.13452,0.42407 -7.85253,0.64856c0,6.41956 -0.07215,12.71191 0.02099,19.00177c0.08594,5.80097 1.38647,6.83942 7.29626,6.18945c2.13233,3.57184 0.62684,5.09668 -3.04406,5.49018c-5.4148,0.58044 -8.92469,-2.26471 -9.27319,-8.5373c-0.39576,-7.11993 -0.09156,-14.27874 -0.09156,-21.42065c-0.49365,0.1731 -0.98742,0.34625 -1.48108,0.51941c-0.93152,-1.84308 -1.86309,-3.6861 -2.56079,-5.86652z" id="svg_25"/>
  <path fill="#ECECEC" d="m1083.052,954.76721c0.11511,11.51782 0.11511,22.607 0.11511,34.01331c-1.72277,0 -3.25292,0 -5.00073,0c0,-11.54706 0,-22.91211 0,-34.87079c1.69483,0.1524 3.23267,0.29065 4.88562,0.85748z" id="svg_26"/>
  <path fill="#FCFCFC" d="m942.06616,973.23901c-1.94256,-0.06378 -3.39862,-0.12756 -4.81134,-0.18945c-0.68536,-5.11237 0.34046,-5.43793 12.78473,-4.15759c0,1.29406 0,2.62683 0,4.34704c-2.612,0 -5.04944,0 -7.97339,0z" id="svg_27"/>
  <path fill="#E6E6E6" d="m1083.63196,944.98151c-1.89905,0.51318 -4.13281,1.47461 -5.14392,0.74395c-0.969,-0.70001 -1.1521,-3.28936 -0.74097,-4.79107c0.23938,-0.87396 2.32556,-1.24219 3.58081,-1.83808c0.8346,1.86463 1.66919,3.72919 2.30408,5.8852z" id="svg_28"/>
  <path fill="none" d="m1313.0813,656.27978c1.40124,-0.79876 2.73926,-1.15667 4.53113,-1.63598c3.64697,48.96423 7.25195,97.36615 10.87829,146.05542c-8.44873,0 -17.02148,0 -25.05835,0c3.20191,-48.09418 6.39368,-96.03638 9.64893,-144.41944z" id="svg_29"/>
  <path fill="#090909" d="m1144.25586,993.02283c-1.37341,7.13434 -9.18884,10.46374 -14.30835,6.16009c-1.48096,-1.24487 -2.10584,-4.28326 -1.99963,-6.44421c0.13183,-2.68158 2.24621,-3.76221 5.07531,-3.04437c3.72901,0.94598 8.45923,-1.98157 11.23267,3.32849z" id="svg_30"/>
  <path fill="#0F0F0F" d="m1140.34839,962.79028c0.18921,0.87244 0.35901,1.35865 0.36084,1.84558c0.01355,3.80951 -0.50867,7.72065 -4.76843,8.72571c-1.62842,0.38428 -4.5951,-1.1383 -5.60938,-2.677c-2.33264,-3.53912 -2.20117,-7.66144 0.49487,-11.11761c2.76172,-3.54035 6.84217,-2.2201 9.5221,3.22332z" id="svg_31"/>
  <path fill="#0F0F0F" d="m719.65155,966.49939c-0.58197,6.2334 -4.70917,2.43475 -7.68237,3.80145c0.32306,-3.76977 0.5849,-6.82617 0.87359,-10.19513c2.45075,0 4.67231,0 7.27832,0c-0.14373,2.0763 -0.27752,4.00891 -0.46954,6.39368z" id="svg_32"/>
  <path fill="#090909" d="m1014.28888,970.17181c-0.55603,3.67469 -0.56543,7.20368 -1.97247,10.03925c-0.99976,2.01507 -3.8703,4.24512 -5.93085,4.26953c-2.06574,0.02448 -4.95544,-2.11432 -6.09271,-4.10126c-3.04511,-5.32074 -3.11164,-11.33453 -0.49012,-16.78064c1.11072,-2.30737 4.21674,-5.01751 6.44086,-5.03967c2.19397,-0.02185 4.83411,2.80591 6.49091,4.98297c1.17779,1.54749 1.04895,4.08948 1.55438,6.62982z" id="svg_33"/>
  <path fill="#131313" d="m858.15753,974.06189c3.19043,-1.27026 6.05805,-2.33637 10.13422,-3.85175c-0.54328,4.4455 -0.19245,8.07801 -1.52912,10.91571c-1.79022,3.80054 -7.45044,5.02759 -9.70611,2.6424c-3.07257,-3.24884 -2.28113,-6.56006 1.10101,-9.70636z" id="svg_34"/>
  <path fill="#191919" d="m841.61255,967.74194c-4.7912,0.56806 -9.37793,0.77497 -15.24237,1.03955c1.31134,-3.23974 1.74237,-6.01941 3.32867,-7.72381c1.47766,-1.58765 4.35999,-3.03369 6.30103,-2.69446c1.9173,0.33502 3.6839,2.80353 5.02295,4.68713c0.77057,1.08387 0.56195,2.86383 0.58972,4.69159z" id="svg_35"/>
 </g>
</svg>